<svg width="289" height="639" viewBox="0 0 289 639" fill="none" xmlns="http://www.w3.org/2000/svg">
<path d="M289 639L194.5 639L193.472 632.14L182.917 626.336L179.75 619.318L182.917 613.145L182.917 608.923L180.806 601.008L186.611 594.676L181.333 587.817L179.75 580.429L183.444 573.57L186.083 566.71L183.972 558.795L184.5 551.408L189.778 544.548L190.833 537.161L189.778 529.774L190.833 522.386L193.472 514.999L190.833 507.084L189.25 499.169L187.139 491.254L190.306 482.812L189.25 474.897L187.667 466.982L183.444 459.595L180.278 452.207L177.639 445.348L175.528 438.488L168.667 433.739L171.833 425.296L167.083 419.492L163.389 412.105L168.139 403.662L166.556 395.747L157.056 391.526L155.472 384.139L152.306 376.751L145.972 372.002L143.861 364.088L142.806 356.7L136.472 350.368L133.306 342.981L137 334.538L135.944 327.151L134.361 319.236L129.611 313.432L129.611 306L124 300.5L127 294.5L129.611 285.993L133.306 278.606L127 271.746L129.611 263.832L127.611 259.263L129.611 249.057L125.306 243.135L125.306 235.116L119.889 227.201L111.028 220.341L112.972 211.899L110.583 205L106.583 199.5L109 194.832L102.778 187L102.778 181L92 172.5L94 165L86 159.5L87.9723 151L87.5 143L81.4446 135.707L83.9447 128.847L73.5279 122L73.5279 114L60.5 107.582L51.5 99.5935L48 92.7338L36 85.3466L25 80L26.0004 71.6273L19.5 63.5L17.5 55.5L13.5 47.5L16.8338 39.5L11 34L7 25.5L8.02832 18L1.52845 12.5L0.472903 3.06166L0.533358 1.26093e-05L289 0L289 639Z" fill="#062D3E"/>
</svg>
