<svg width="322" height="58" viewBox="0 0 322 58" fill="none" xmlns="http://www.w3.org/2000/svg">
<mask id="mask0_2238_51" style="mask-type:alpha" maskUnits="userSpaceOnUse" x="0" y="0" width="322" height="58">
<g clip-path="url(#clip0_2238_51)">
<path d="M45.4893 48.1666C50.6989 48.1666 54.9222 41.8906 54.9222 34.1487C54.9222 26.4069 50.6989 20.1309 45.4893 20.1309C40.2796 20.1309 36.0564 26.4069 36.0564 34.1487C36.0564 41.8906 40.2796 48.1666 45.4893 48.1666Z" fill="#FBB03B"/>
<path d="M198.22 34.5797C207.212 34.5248 214.524 38.6902 214.559 43.8855C214.594 49.0807 207.334 45.1987 198.342 45.2537C189.35 45.3087 182.031 49.2832 181.999 44.0966C181.968 38.9101 189.228 34.6463 198.22 34.5797Z" fill="#FBB03B"/>
<path d="M105.046 39.8112C106.246 35.5553 104.227 31.2659 100.536 30.2307C96.8452 29.1955 92.8801 31.8064 91.6798 36.0623C90.4795 40.3183 92.4986 44.6076 96.1896 45.6428C99.8805 46.6781 103.846 44.0672 105.046 39.8112Z" fill="#FBB03B"/>
<path d="M296.455 25.0169C298.359 21.9382 297.4 17.9035 294.312 16.0051C291.225 14.1066 287.179 15.0634 285.276 18.142C283.372 21.2207 284.331 25.2554 287.419 27.1538C290.506 29.0522 294.552 28.0955 296.455 25.0169Z" fill="#FBB03B"/>
<path d="M321.21 35.8151C321.146 34.0795 321.036 32.367 320.87 30.6777C320.076 22.6679 317.993 15.3465 313.552 11.3633C313.109 10.9603 312.636 10.5919 312.137 10.2613C311.69 9.96072 311.224 9.69012 310.741 9.4513C294.112 1.30844 280.865 7.91241 275.934 11.1291C272.775 13.1915 269.326 15.0341 265.242 15.199C264.618 15.2252 263.993 15.2097 263.371 15.1527C262.688 15.0953 262.01 14.9929 261.341 14.8461C259.2 14.3775 257.045 15.4651 255.267 17.9008C254.114 19.5473 253.265 21.386 252.76 23.3303C252.601 23.9088 252.47 24.5192 252.349 25.1411C251.438 30.0239 252.029 35.7977 254.901 40.6863C256.061 42.6765 257.239 44.493 258.269 46.0985C261.091 50.4982 263.177 53.7525 263.594 57.3481H265.378C264.955 53.2347 262.649 49.642 259.768 45.1439C258.698 43.4748 257.593 41.7508 256.438 39.7867C253.848 35.3869 253.265 30.2409 254.008 25.8238C254.847 26.0754 255.719 26.2031 256.595 26.2027C258.947 26.2143 261.207 25.2953 262.88 23.6474C264.553 21.9994 265.503 19.757 265.52 17.4119C265.52 17.2586 265.52 17.1082 265.52 16.9549C269.967 16.7119 273.718 14.6986 276.908 12.6159C281.578 9.5641 294.147 3.30149 309.955 11.0452C310.357 11.2434 310.745 11.4686 311.116 11.7191C305.842 19.4975 296.612 35.3088 302.031 43.8277C304.351 47.458 306.878 48.4416 308.952 48.4416C309.474 48.4391 309.995 48.379 310.504 48.2622C313.863 47.487 317.056 44.3051 319.449 39.7665C319.392 45.6495 318.998 51.5244 318.269 57.3625H320.087C320.815 51.5483 321.497 43.6166 321.21 35.8151ZM233.474 34.8894C233.269 33.6563 232.952 32.4442 232.528 31.2678C231.583 28.6744 230.184 26.2689 228.395 24.1634C229.033 20.9149 228.276 13.1713 225.532 12.6101C223.832 12.2688 221.761 14.768 220.291 17.4871C215.069 14.5106 208.665 12.7576 201.767 12.7576C194.869 12.7576 188.471 14.5135 183.249 17.49C181.767 14.768 179.705 12.2688 178.008 12.6101C175.264 13.1568 174.504 20.9149 175.142 24.1634C173.365 26.2615 171.971 28.6544 171.023 31.2331C170.602 32.3938 170.285 33.5893 170.075 34.8055C169.921 35.6592 169.824 36.5221 169.785 37.3887C169.767 37.6953 169.761 38.0048 169.761 38.3172C169.761 39.3826 169.843 40.4465 170.008 41.4992C170.602 45.1448 172.098 48.5854 174.359 51.5107C173.624 53.4083 173.052 55.3651 172.65 57.3596H174.466C174.772 55.9167 175.172 54.4953 175.664 53.1045C175.829 52.633 176.006 52.1702 176.195 51.7103C176.251 51.5669 176.268 51.4117 176.246 51.2596C176.223 51.1076 176.162 50.9638 176.067 50.8425C175.748 50.4404 175.45 50.0325 175.165 49.6131C173.542 47.2899 172.422 44.6544 171.879 41.8752C173.126 41.9764 174.077 41.7016 174.312 41.0739C174.64 40.2061 173.442 38.9131 171.545 38.0309C171.557 37.1785 171.628 36.328 171.757 35.4853C173.805 36.0899 175.606 35.9134 175.943 35.0167C176.296 34.0708 174.866 32.6505 172.711 31.774C173.46 29.7495 174.51 27.849 175.827 26.1362C178.06 23.2645 180.847 20.8675 184.024 19.0868C189.007 16.2317 195.139 14.5482 201.764 14.5482C208.389 14.5482 214.527 16.2346 219.499 19.0896C222.676 20.8687 225.463 23.2648 227.696 26.1362C229.029 27.8647 230.088 29.7864 230.837 31.8348C228.769 32.7199 227.415 34.091 227.763 35.0167C228.088 35.8845 229.793 36.0783 231.774 35.5316C231.904 36.3876 231.973 37.2518 231.98 38.1176C230.19 38.9854 229.08 40.2235 229.393 41.0739C229.613 41.6727 230.486 41.9417 231.647 41.8868C231.1 44.6616 229.981 47.2928 228.36 49.6131C228.076 50.0296 227.776 50.4384 227.461 50.8396C227.365 50.9601 227.303 51.1041 227.281 51.2566C227.259 51.4091 227.278 51.5647 227.336 51.7074C227.522 52.1673 227.696 52.633 227.864 53.1045C228.356 54.4953 228.757 55.9167 229.062 57.3596H230.875C230.473 55.3651 229.902 53.4083 229.167 51.5107C231.418 48.6015 232.913 45.182 233.518 41.557C233.689 40.4894 233.774 39.4099 233.773 38.3288C233.773 38.0395 233.773 37.7358 233.752 37.4436C233.716 36.5871 233.623 35.7338 233.474 34.8894V34.8894ZM122.025 4.82882C107.522 4.38914 99.9457 12.2601 96.1371 19.0376C90.8261 26.4602 82.5911 38.997 83.4497 44.3542C84.4156 50.3912 87.0813 51.8752 88.4388 52.231C88.7516 52.985 89.118 53.7158 89.5353 54.4178C90.0891 55.3522 90.5673 56.3291 90.9653 57.3394H92.8797C92.3975 56.0106 91.7905 54.7302 91.0668 53.5153C90.6994 52.8968 90.3766 52.253 90.1009 51.5888C89.9878 51.3169 89.8862 51.042 89.7905 50.7672C87.1451 43.1566 91.1799 35.0283 93.2336 30.8888C93.8688 29.6045 94.2865 28.7598 94.4258 28.1639C95.296 24.4498 100.656 5.94828 121.982 6.59334C132.668 6.91732 139.009 12.4973 142.446 17.1256C147.835 24.3775 149.611 34.0245 148.21 39.159C145.796 48.0134 140.398 53.7959 135.656 52.6128C133.579 52.0979 132.157 51.0826 131.305 49.5205C129.703 46.5526 130.144 41.4876 132.619 34.4787C137.303 21.1724 132.488 16.5846 132.282 16.3937C132.198 16.3143 132.098 16.2526 131.989 16.2122C131.881 16.1718 131.765 16.1535 131.649 16.1583C131.533 16.1632 131.419 16.1911 131.314 16.2404C131.209 16.2898 131.115 16.3596 131.038 16.4458C130.878 16.6169 130.792 16.8439 130.798 17.0777C130.805 17.3115 130.903 17.5334 131.073 17.6954C131.113 17.733 135.189 21.829 130.942 33.8943C128.256 41.5136 127.867 46.9113 129.741 50.3825C130.82 52.3843 132.662 53.7207 135.218 54.3571C137.709 54.9761 140.27 54.1922 142.6 52.2975C142.417 53.6426 142.226 55.4216 142.159 57.3654H143.948C144.04 54.9552 144.306 52.5547 144.746 50.1829C144.746 50.1829 144.746 50.1656 144.746 50.1569C146.913 47.5737 148.74 43.9637 149.915 39.6479C151.403 34.1836 149.787 24.0708 143.861 16.0957C140.195 11.1493 133.428 5.17305 122.025 4.82882ZM92.6883 27.7763C92.396 28.5795 92.044 29.3598 91.6353 30.1107C89.6049 34.2096 85.7325 42.0025 87.6324 49.7809C86.7622 48.9796 85.7267 47.3568 85.1988 44.0794C84.6709 40.802 88.6158 33.417 93.0131 26.5122C92.8681 27.03 92.7492 27.4552 92.6883 27.7763ZM63.8297 36.8391C63.8297 27.6086 60.8276 19.1678 55.8878 12.7345C55.932 12.4172 55.9543 12.0973 55.9545 11.777C55.9545 8.48805 53.6804 0.970015 50.8697 0.970015C49.5151 0.970015 48.291 2.70559 47.3889 4.88087C42.8279 1.92276 37.5041 0.34819 32.0633 0.34819C26.6226 0.34819 21.2988 1.92276 16.7378 4.88087C15.827 2.70848 14.6029 0.970015 13.257 0.970015C10.4434 0.970015 8.16925 8.49094 8.16925 11.777C8.16835 12.0963 8.18968 12.4152 8.23306 12.7316C3.30196 19.1678 0.291092 27.6057 0.291092 36.8391C0.265329 43.3209 1.79391 49.715 4.74938 55.4881V55.4881C4.39937 56.0956 4.06676 56.7136 3.75156 57.3423H5.7298C5.97926 56.8756 6.24032 56.4157 6.51298 55.9625C6.53753 55.9193 6.55979 55.8749 6.57969 55.8294C6.58781 55.8047 6.59459 55.7796 6.6 55.7542V55.7282V55.6877C6.6 55.6645 6.6 55.6443 6.6 55.624C6.6 55.6038 6.6 55.6241 6.6 55.6038C6.60298 55.574 6.60298 55.5439 6.6 55.5141V55.2943L6.50138 55.112L6.47817 55.0686C3.51665 49.4499 1.98281 43.1924 2.01117 36.8448C2.01117 28.4937 4.56664 20.8281 8.82769 14.8317C11.1132 11.5789 13.9913 8.78331 17.3121 6.59045C21.659 3.68087 26.7758 2.12719 32.0111 2.12719C37.2464 2.12719 42.3632 3.68087 46.7101 6.59045C50.0294 8.78419 52.9063 11.5796 55.1916 14.8317C59.4527 20.8281 62.0081 28.4937 62.0081 36.8448C62.0356 43.1982 60.5009 49.4614 57.5382 55.086C57.5371 55.0947 57.5371 55.1034 57.5382 55.112C57.5304 55.1303 57.5207 55.1478 57.5092 55.1641V55.1901C57.5076 55.2007 57.5076 55.2114 57.5092 55.222C57.4912 55.2716 57.4786 55.323 57.4715 55.3753C57.4703 55.382 57.4703 55.3888 57.4715 55.3955C57.4702 55.4051 57.4702 55.4149 57.4715 55.4245C57.4701 55.4505 57.4701 55.4765 57.4715 55.5025V55.5199C57.4715 55.5459 57.4715 55.5691 57.4715 55.5922C57.4715 55.6154 57.4715 55.6443 57.4715 55.6761C57.4747 55.7015 57.4795 55.7266 57.486 55.7513V55.7889C57.486 55.7889 57.486 55.8178 57.5005 55.8294C57.5202 55.8792 57.5434 55.9276 57.5701 55.974C57.8428 56.4282 58.101 56.8881 58.3504 57.3539H60.3461C60.0328 56.7252 59.6992 56.1062 59.3453 55.4968C62.3113 49.7234 63.8489 43.326 63.8297 36.8391V36.8391Z" fill="#2D3030"/>
<path d="M44.6449 33.9202C43.6703 33.9202 42.8784 35.7571 42.8784 38.0191C42.8784 40.2812 43.6703 42.1209 44.6449 42.1209C45.6195 42.1209 46.4143 40.2841 46.4143 38.0191C46.4143 35.7542 45.6224 33.9202 44.6449 33.9202Z" fill="#2D3030"/>
<path d="M19.4618 33.9202C18.4872 33.9202 17.6953 35.7571 17.6953 38.0191C17.6953 40.2812 18.4872 42.1209 19.4618 42.1209C20.4364 42.1209 21.2283 40.2841 21.2283 38.0191C21.2283 35.7542 20.4393 33.9202 19.4618 33.9202Z" fill="#2D3030"/>
<path d="M36.3172 48.3866C36.0818 48.3866 35.8561 48.4798 35.6896 48.6458C35.5231 48.8118 35.4296 49.037 35.4296 49.2718C35.4383 49.4615 35.4082 49.6511 35.3414 49.829C35.2745 50.0069 35.1721 50.1694 35.0405 50.3068C34.9089 50.4441 34.7507 50.5535 34.5756 50.6282C34.4004 50.7028 34.2119 50.7413 34.0214 50.7413C33.8309 50.7413 33.6423 50.7028 33.4672 50.6282C33.292 50.5535 33.1338 50.4441 33.0022 50.3068C32.8706 50.1694 32.7682 50.0069 32.7014 49.829C32.6345 49.6511 32.6045 49.4615 32.6131 49.2718V41.7884H32.996C33.2352 41.7884 33.4647 41.6937 33.6339 41.5249C33.803 41.3562 33.8981 41.1274 33.8981 40.8888C33.8981 40.6502 33.803 40.4214 33.6339 40.2527C33.4647 40.0839 33.2352 39.9892 32.996 39.9892H30.4782C30.239 39.9892 30.0095 40.0839 29.8403 40.2527C29.6712 40.4214 29.5761 40.6502 29.5761 40.8888C29.5761 41.1274 29.6712 41.3562 29.8403 41.5249C30.0095 41.6937 30.239 41.7884 30.4782 41.7884H30.8495V49.2718C30.8581 49.4615 30.8281 49.6511 30.7612 49.829C30.6944 50.0069 30.592 50.1694 30.4604 50.3068C30.3288 50.4441 30.1706 50.5535 29.9954 50.6282C29.8203 50.7028 29.6317 50.7413 29.4412 50.7413C29.2507 50.7413 29.0622 50.7028 28.887 50.6282C28.7119 50.5535 28.5537 50.4441 28.4221 50.3068C28.2905 50.1694 28.1881 50.0069 28.1212 49.829C28.0544 49.6511 28.0243 49.4615 28.033 49.2718C28.02 49.0454 27.9207 48.8325 27.7554 48.6768C27.5901 48.5211 27.3713 48.4344 27.1439 48.4344C26.9166 48.4344 26.6978 48.5211 26.5325 48.6768C26.3672 48.8325 26.2679 49.0454 26.2549 49.2718C26.2586 49.9038 26.4509 50.5204 26.8074 51.043C27.1639 51.5655 27.6684 51.9704 28.2565 52.2059C28.8446 52.4414 29.4897 52.497 30.1096 52.3654C30.7295 52.2339 31.2961 51.9212 31.7371 51.4673C32.1781 51.9212 32.7447 52.2339 33.3646 52.3654C33.9845 52.497 34.6296 52.4414 35.2177 52.2059C35.8058 51.9704 36.3103 51.5655 36.6668 51.043C37.0233 50.5204 37.2156 49.9038 37.2193 49.2718C37.2189 49.1544 37.1953 49.0383 37.1496 48.9301C37.104 48.8219 37.0373 48.7239 36.9534 48.6416C36.8695 48.5593 36.7701 48.4943 36.6609 48.4506C36.5517 48.4068 36.4349 48.3851 36.3172 48.3866V48.3866Z" fill="#2D3030"/>
<path d="M208.929 44.4466C209.721 44.4466 210.362 43.8068 210.362 43.0176C210.362 42.2284 209.721 41.5887 208.929 41.5887C208.138 41.5887 207.496 42.2284 207.496 43.0176C207.496 43.8068 208.138 44.4466 208.929 44.4466Z" fill="#2D3030"/>
<path d="M187.917 44.4466C188.708 44.4466 189.35 43.8068 189.35 43.0176C189.35 42.2284 188.708 41.5887 187.917 41.5887C187.125 41.5887 186.484 42.2284 186.484 43.0176C186.484 43.8068 187.125 44.4466 187.917 44.4466Z" fill="#2D3030"/>
<path d="M289.498 21.5483C290.289 21.5483 290.931 20.9085 290.931 20.1193C290.931 19.3301 290.289 18.6904 289.498 18.6904C288.706 18.6904 288.065 19.3301 288.065 20.1193C288.065 20.9085 288.706 21.5483 289.498 21.5483Z" fill="#2D3030"/>
<path d="M280.796 18.9622C281.587 18.9622 282.229 18.3225 282.229 17.5333C282.229 16.7441 281.587 16.1043 280.796 16.1043C280.004 16.1043 279.363 16.7441 279.363 17.5333C279.363 18.3225 280.004 18.9622 280.796 18.9622Z" fill="#2D3030"/>
<path d="M300.088 4.51912C301.46 4.92698 302.698 4.84309 302.846 4.33398C302.994 3.82487 302.008 3.08435 300.636 2.67649C299.264 2.26862 298.025 2.35251 297.877 2.86162C297.73 3.37073 298.716 4.11125 300.088 4.51912Z" fill="#2D3030"/>
<path d="M288.923 3.58479C290.301 3.19139 291.296 2.45664 291.148 1.94753C291 1.43842 289.767 1.34297 288.392 1.73927C287.017 2.13557 286.02 2.86742 286.168 3.37653C286.316 3.88564 287.548 3.98109 288.923 3.58479Z" fill="#2D3030"/>
<path d="M279.983 31.1577C279.769 31.0592 279.525 31.0492 279.304 31.13C279.082 31.2107 278.902 31.3757 278.803 31.5887C277.312 34.7938 274.049 36.379 270.681 35.5343C270.567 35.506 270.448 35.5004 270.331 35.5179C270.215 35.5354 270.103 35.5755 270.002 35.6361C269.901 35.6967 269.814 35.7764 269.744 35.8709C269.674 35.9654 269.623 36.0727 269.595 36.1866C269.566 36.3006 269.561 36.419 269.578 36.5351C269.596 36.6512 269.636 36.7628 269.697 36.8633C269.757 36.9639 269.837 37.0516 269.932 37.1214C270.027 37.1911 270.134 37.2416 270.249 37.2699C270.983 37.4574 271.738 37.5545 272.497 37.5592C275.864 37.5592 278.878 35.6385 280.418 32.3524C280.47 32.2456 280.499 32.1298 280.505 32.0116C280.51 31.8934 280.493 31.7752 280.452 31.664C280.412 31.5528 280.349 31.4508 280.269 31.3639C280.188 31.2769 280.091 31.2068 279.983 31.1577Z" fill="#2D3030"/>
<path d="M116.604 37.1831C116.321 37.1831 116.044 37.2669 115.808 37.424C115.573 37.581 115.389 37.8042 115.281 38.0653C115.172 38.3264 115.144 38.6137 115.199 38.8909C115.254 39.1681 115.391 39.4227 115.591 39.6226C115.792 39.8224 116.047 39.9585 116.325 40.0136C116.603 40.0688 116.891 40.0405 117.153 39.9323C117.415 39.8241 117.638 39.641 117.796 39.406C117.953 39.171 118.037 38.8947 118.037 38.6121C118.037 38.2331 117.886 37.8697 117.618 37.6017C117.349 37.3337 116.984 37.1831 116.604 37.1831V37.1831Z" fill="#2D3030"/>
<path d="M99.569 37.1831C99.2855 37.1826 99.0081 37.2659 98.7721 37.4225C98.5361 37.5792 98.352 37.8022 98.2431 38.0633C98.1342 38.3243 98.1054 38.6117 98.1604 38.8891C98.2153 39.1665 98.3516 39.4214 98.5519 39.6215C98.7521 39.8217 99.0075 39.958 99.2855 40.0134C99.5635 40.0688 99.8518 40.0407 100.114 39.9326C100.376 39.8245 100.6 39.6414 100.757 39.4063C100.915 39.1713 100.999 38.8948 100.999 38.6121C100.999 38.2336 100.848 37.8706 100.58 37.6027C100.312 37.3348 99.9485 37.1839 99.569 37.1831V37.1831Z" fill="#2D3030"/>
<path d="M111.894 46.3182C111.658 46.3182 111.432 46.4113 111.265 46.5772C111.098 46.7432 111.004 46.9683 111.003 47.2033C111.003 47.5245 110.892 47.8359 110.69 48.0854C110.487 48.3349 110.204 48.5076 109.889 48.5745C109.794 48.5953 109.697 48.606 109.599 48.6063C109.227 48.6055 108.869 48.4574 108.605 48.1945C108.342 47.9316 108.193 47.5752 108.193 47.2033V44.3367H108.564C108.803 44.3359 109.032 44.2409 109.201 44.0724C109.37 43.9038 109.465 43.6754 109.466 43.4371C109.465 43.1987 109.37 42.9703 109.201 42.8018C109.032 42.6333 108.803 42.5382 108.564 42.5375H106.034C105.916 42.5374 105.799 42.5606 105.689 42.6058C105.58 42.6509 105.48 42.7172 105.396 42.8007C105.27 42.9265 105.184 43.0869 105.149 43.2614C105.114 43.436 105.132 43.617 105.201 43.7814C105.269 43.9459 105.385 44.0864 105.533 44.1852C105.681 44.2841 105.856 44.3368 106.034 44.3367H106.403V47.2033C106.403 47.5754 106.255 47.9323 105.991 48.1954C105.727 48.4585 105.369 48.6063 104.996 48.6063C104.899 48.606 104.801 48.5954 104.706 48.5745C104.39 48.5082 104.107 48.3358 103.904 48.0862C103.701 47.8366 103.59 47.5249 103.589 47.2033C103.576 46.9769 103.477 46.7641 103.312 46.6084C103.146 46.4527 102.928 46.3659 102.7 46.3659C102.473 46.3659 102.254 46.4527 102.089 46.6084C101.923 46.7641 101.824 46.9769 101.811 47.2033C101.813 47.9769 102.097 48.7235 102.611 49.3033C103.124 49.8831 103.832 50.2564 104.602 50.3535C104.866 51.7998 105.974 52.8903 107.293 52.8903C108.613 52.8903 109.721 51.7998 109.985 50.3535C110.754 50.2558 111.461 49.8821 111.974 49.3024C112.487 48.7227 112.771 47.9765 112.773 47.2033C112.772 46.9703 112.679 46.7469 112.515 46.5813C112.351 46.4157 112.127 46.3212 111.894 46.3182ZM107.302 51.7101C106.6 51.7101 106.003 51.1055 105.805 50.2638C106.131 50.1822 106.441 50.0462 106.722 49.8617V50.4171C106.722 50.574 106.784 50.7244 106.896 50.8354C107.007 50.9463 107.158 51.0086 107.315 51.0086C107.472 51.0086 107.623 50.9463 107.735 50.8354C107.846 50.7244 107.908 50.574 107.908 50.4171V49.9109C108.184 50.0841 108.486 50.213 108.802 50.2927C108.593 51.1055 107.998 51.7101 107.293 51.7101H107.302Z" fill="#2D3030"/>
<path d="M117.768 30.8945C116.396 30.4866 115.157 30.5705 115.009 31.0767C114.861 31.5829 115.847 32.3292 117.219 32.7371C118.591 33.145 119.83 33.0611 119.978 32.552C120.126 32.0429 119.145 31.3023 117.768 30.8945Z" fill="#2D3030"/>
<path d="M102.006 30.935C101.823 30.4374 100.587 30.4259 99.2413 30.9118C97.8954 31.3978 96.9498 32.1962 97.1296 32.6966C97.3094 33.197 98.5509 33.2057 99.8968 32.7169C101.243 32.228 102.185 31.4325 102.006 30.935Z" fill="#2D3030"/>
<path d="M110.638 13.8104C111.087 12.7893 113.034 12.581 114.803 13.3591C115.387 13.6124 115.923 13.9647 116.387 14.4005C116.47 14.4884 116.569 14.5586 116.68 14.6068C116.791 14.6551 116.91 14.6803 117.031 14.6811C117.152 14.6818 117.271 14.658 117.383 14.6112C117.494 14.5643 117.595 14.4954 117.678 14.4085C117.762 14.3217 117.827 14.2188 117.87 14.106C117.912 13.9932 117.932 13.873 117.926 13.7527C117.921 13.6323 117.891 13.5143 117.838 13.4059C117.785 13.2975 117.711 13.2008 117.62 13.1219C117.006 12.5437 116.296 12.076 115.523 11.7393C112.747 10.5157 109.887 11.1115 109.011 13.0901C108.77 13.6352 108.698 14.2396 108.805 14.8257C107.082 15.465 105.933 16.7465 105.933 18.2535C105.933 18.8937 106.136 19.5175 106.513 20.0354C106.919 20.5863 107.447 21.0359 108.056 21.3487C109.067 21.8718 110.192 22.1372 111.331 22.121H111.621C111.85 22.1026 112.063 21.9968 112.215 21.8257C112.368 21.6545 112.448 21.4313 112.439 21.2026C112.431 20.9738 112.334 20.7572 112.169 20.5979C112.004 20.4387 111.784 20.3491 111.554 20.3478H111.317C110.547 20.3532 109.785 20.1923 109.083 19.8763C108.396 19.5552 107.897 19.1011 107.74 18.592C107.705 18.4825 107.688 18.3684 107.688 18.2535C107.688 17.5246 108.413 16.8535 109.457 16.4803C110.054 16.2685 110.683 16.1608 111.317 16.1621C111.386 16.1621 111.456 16.1621 111.525 16.1621C112.091 16.1767 112.651 16.2802 113.185 16.4688C113.296 16.5148 113.415 16.5379 113.535 16.5368C113.655 16.5357 113.774 16.5104 113.884 16.4623C113.994 16.4142 114.093 16.3444 114.175 16.2571C114.258 16.1698 114.321 16.0668 114.363 15.9543C114.404 15.8418 114.422 15.722 114.416 15.6024C114.41 15.4827 114.379 15.3655 114.326 15.2579C114.273 15.1503 114.199 15.0545 114.108 14.9762C114.017 14.898 113.911 14.8389 113.797 14.8026C113 14.5221 112.161 14.3802 111.317 14.3832C111.051 14.3834 110.786 14.3969 110.522 14.4236C110.511 14.3275 110.511 14.2305 110.522 14.1344C110.543 14.0208 110.582 13.9114 110.638 13.8104V13.8104Z" fill="#2D3030"/>
</g>
</mask>
<g mask="url(#mask0_2238_51)">
<path d="M-196 25.3089C-196 0.966158 -176.037 -18.6452 -151.698 -18.2127L376.245 -8.83045C399.98 -8.40865 419 10.9525 419 34.6911V34.6911C419 59.0338 399.037 78.6452 374.698 78.2127L-153.245 68.8304C-176.98 68.4086 -196 49.0475 -196 25.3089V25.3089Z" fill="#062D3E"/>
</g>
<defs>
<clipPath id="clip0_2238_51">
<rect width="321" height="57" fill="white" transform="translate(0.276978 0.347916)"/>
</clipPath>
</defs>
</svg>
