<svg width="212" height="229" viewBox="0 0 212 229" fill="none" xmlns="http://www.w3.org/2000/svg">
<g clip-path="url(#clip0_1_798)">
<path d="M108.552 10.2498C108.154 10.4482 107.757 10.7127 107.359 11.0433C105.768 12.2336 104.642 14.0191 103.316 15.6062C100.997 18.5819 98.2799 21.1609 95.2977 23.2108C95.0989 24.7979 93.7735 26.0543 92.3818 26.0543C92.3155 27.2446 92.183 28.3688 92.1167 29.5591C88.4055 34.0558 85.4896 39.4782 83.7003 45.2975C82.9713 45.3636 82.1761 45.4958 81.4471 45.6281C80.0554 48.6038 78.73 51.5135 77.3383 54.4892C76.5431 54.6876 75.8804 55.3489 75.2177 56.0101C73.8922 57.3988 72.5668 58.7875 71.8379 60.6391C70.9101 63.0197 71.1751 65.8632 70.2474 68.2438C69.7172 69.5002 68.9219 70.5582 68.5243 71.8146C68.193 72.8727 68.2592 74.1291 68.8557 74.9888C68.7231 75.3194 68.5243 75.5839 68.3918 75.9146C66.4699 76.9065 64.8132 78.5597 63.7528 80.7419C63.2227 81.0064 62.6262 81.2709 62.0961 81.4693C61.0357 82.9902 59.9754 84.5112 58.9151 86.0321C57.921 86.0982 56.9269 86.2305 55.9329 86.2966C54.74 87.6853 53.6134 89.074 52.4205 90.5288C53.8122 90.8594 55.1376 91.2562 56.5293 91.6529C56.6619 92.4465 56.3968 93.3061 55.8666 93.9013C55.9329 95.819 55.9992 97.7367 56.0654 99.6544C55.6015 100.58 55.0714 101.572 54.6075 102.498L53.7459 104.217C53.5471 104.68 53.2821 105.143 53.0832 105.54C53.0832 105.606 53.017 105.672 53.017 105.672C51.3602 105.143 49.7034 105.077 48.0467 105.407C48.5768 107.127 49.1733 108.78 49.7034 110.499C48.1792 113.078 46.655 115.723 45.1308 118.302C45.8597 119.427 44.9982 121.08 43.8716 121.477C42.745 121.873 41.5521 121.344 40.4255 120.881C40.9557 123.196 40.4255 125.775 39.1001 127.56C39.8954 127.957 39.9616 129.28 39.564 130.139C39.1664 130.999 38.3711 131.528 37.7747 132.123C35.9191 133.975 34.9251 136.686 33.931 139.265C33.3346 140.918 32.7381 142.571 32.1417 144.224C30.6837 148.258 27.3702 149.382 25.6472 153.284C25.4484 153.747 25.9785 155.4 26.2436 156.656C25.9123 157.318 25.5146 157.913 25.1833 158.574C25.0507 158.64 24.9845 158.64 24.8519 158.706C23.4602 159.235 21.936 162.013 21.8697 162.013C21.8697 162.013 21.5384 163.071 21.4721 163.997L21.207 163.93C21.207 163.005 21.2733 162.079 21.3396 161.153C21.3396 160.822 21.4058 160.492 21.4058 160.161C21.5384 158.177 21.7372 156.127 22.0023 154.144C22.0686 153.747 22.0686 153.35 22.1348 153.019C22.2011 152.623 22.2674 152.226 22.2674 151.895C22.5324 149.911 22.8638 147.928 23.1289 145.944C23.2614 145.282 23.3277 144.687 23.4602 144.092C23.659 142.77 23.9241 141.381 24.1892 140.058C24.3218 139.199 24.5206 138.339 24.7194 137.479C24.8519 136.686 25.0507 135.892 25.2495 135.099C25.2495 135.033 25.2495 134.967 25.3158 134.9C25.846 132.321 26.5087 129.742 27.1051 127.163C27.1714 127.031 27.1714 126.833 27.2377 126.634C27.3702 125.973 27.569 125.378 27.7678 124.717C27.9004 124.254 28.0329 123.791 28.0992 123.328C28.298 122.535 28.5631 121.741 28.7619 120.947C29.1595 119.559 29.5571 118.236 29.9548 116.848C30.3524 115.525 30.75 114.202 31.2139 112.814C31.479 111.954 31.7441 111.161 32.0092 110.301C32.2742 109.441 32.5393 108.648 32.8707 107.788C36.9132 95.8851 41.8172 84.2466 47.5828 73.2033C48.4443 71.5501 49.3058 69.8969 50.1673 68.3099C50.2336 68.1776 50.2999 68.0454 50.3661 67.9792C50.6975 67.318 51.0951 66.6567 51.4265 66.0615L52.0892 64.9374C54.4087 60.9036 56.8607 57.0021 59.379 53.1667C60.5056 51.4473 61.6984 49.7941 62.8913 48.141C63.1564 47.7442 63.4877 47.3474 63.7528 46.9507C64.5481 45.8926 65.3433 44.8346 66.1386 43.7765C68.5243 40.7347 70.9763 37.7589 73.5609 34.9816C76.0792 32.1381 78.8625 29.493 81.6459 26.914C83.0376 25.6576 84.4956 24.4673 85.9535 23.2108C86.6825 22.6157 87.4115 22.0205 88.1404 21.4915L90.3936 19.8383C91.1889 19.3093 91.9179 18.7142 92.7131 18.2513C93.5084 17.7884 94.3036 17.2593 95.0989 16.7965C96.6894 15.8707 98.2136 14.8788 99.9366 14.0852C100.666 13.6885 101.461 13.3578 102.19 12.9611C102.256 12.9611 102.322 12.8949 102.389 12.8949C103.184 12.4982 104.045 12.1014 104.907 11.8369C106.034 11.1095 107.293 10.6466 108.552 10.2498Z" fill="#EBE3CC"/>
<path d="M108.552 10.2498C108.154 10.4482 107.757 10.7127 107.359 11.0433C105.768 12.2336 104.642 14.0191 103.316 15.6062C100.997 18.5819 98.2799 21.1609 95.2977 23.2108C95.0989 24.7979 93.7735 26.0543 92.3818 26.0543C92.3155 27.2446 92.183 28.3688 92.1167 29.5591C88.4055 34.0558 85.4896 39.4782 83.7003 45.2975C82.9713 45.3636 82.1761 45.4958 81.4471 45.6281C80.0554 48.6038 78.73 51.5135 77.3383 54.4892C76.5431 54.6876 75.8804 55.3489 75.2177 56.0101C73.8922 57.3988 72.5668 58.7875 71.8379 60.6391C70.9101 63.0197 71.1751 65.8632 70.2474 68.2438C69.7172 69.5002 68.9219 70.5582 68.5243 71.8146C68.193 72.8727 68.2592 74.1291 68.8557 74.9888C68.7231 75.3194 68.5243 75.5839 68.3918 75.9146C66.4699 76.9065 64.8132 78.5597 63.7528 80.7419C63.2227 81.0064 62.6262 81.2709 62.0961 81.4693C61.0357 82.9902 59.9754 84.5112 58.9151 86.0321C57.921 86.0982 56.9269 86.2305 55.9329 86.2966C54.74 87.6853 53.6134 89.074 52.4205 90.5288C53.8122 90.8594 55.1376 91.2562 56.5293 91.6529C56.6619 92.4465 56.3968 93.3061 55.8666 93.9013C55.9329 95.819 55.9992 97.7367 56.0654 99.6544C55.6015 100.58 55.0714 101.572 54.6075 102.498L53.7459 104.217C53.5471 104.68 53.2821 105.143 53.0832 105.54C53.0832 105.606 53.017 105.672 53.017 105.672C51.3602 105.143 49.7034 105.077 48.0467 105.407C48.5768 107.127 49.1733 108.78 49.7034 110.499C48.1792 113.078 46.655 115.723 45.1308 118.302C45.8597 119.427 44.9982 121.08 43.8716 121.477C42.745 121.873 41.5521 121.344 40.4255 120.881C40.9557 123.196 40.4255 125.775 39.1001 127.56C39.8954 127.957 39.9616 129.28 39.564 130.139C39.1664 130.999 38.3711 131.528 37.7747 132.123C35.9191 133.975 34.9251 136.686 33.931 139.265C33.3346 140.918 32.7381 142.571 32.1417 144.224C30.6837 148.258 27.3702 149.382 25.6472 153.284C25.4484 153.747 25.9785 155.4 26.2436 156.656C25.9123 157.318 25.5146 157.913 25.1833 158.574C25.0507 158.64 24.9845 158.64 24.8519 158.706C23.4602 159.235 21.936 162.013 21.8697 162.013C21.8697 162.013 21.5384 163.071 21.4721 163.997L21.207 163.93C21.207 163.005 21.2733 162.079 21.3396 161.153C21.3396 160.822 21.4058 160.492 21.4058 160.161C21.5384 158.177 21.7372 156.127 22.0023 154.144C22.0686 153.747 22.0686 153.35 22.1348 153.019C22.0686 152.027 22.0023 151.036 21.8035 150.044C21.6047 149.184 21.4058 148.324 21.5384 147.399C21.7372 146.076 22.665 145.084 23.4602 144.026C23.7253 142.703 23.9241 141.315 24.1892 139.992C24.3218 139.133 24.5206 138.273 24.7194 137.413C24.8519 136.62 25.0507 135.826 25.2495 135.033C25.2495 134.967 25.2495 134.9 25.3158 134.834C25.0507 133.446 24.4543 132.189 23.7253 131.065C24.6531 129.544 25.846 128.155 27.1714 127.097C27.2377 126.965 27.2377 126.767 27.3039 126.568C27.4365 125.907 27.6353 125.312 27.8341 124.651C27.9666 124.188 28.0992 123.725 28.1655 123.262C28.3643 122.468 28.6294 121.675 28.8282 120.881C28.1655 117.972 29.1595 114.599 31.2139 112.814C31.479 111.954 31.7441 111.161 32.0092 110.301C32.2742 109.441 32.5393 108.648 32.8707 107.788C32.7381 107.259 32.7381 106.664 32.7381 106.135C33.0032 102.895 33.9973 99.7866 35.654 97.1415C36.383 95.9512 37.3108 94.8932 37.841 93.5706C39.1001 90.661 38.7025 86.9579 40.4918 84.445C41.2208 83.4531 42.2148 82.7257 42.6787 81.6015C43.6065 79.5516 42.8776 76.5758 44.4681 75.2533C44.9319 74.8565 45.5284 74.7243 45.926 74.1952C46.5887 73.2033 45.8597 71.6824 46.1911 70.4921C46.655 68.8389 48.6431 68.7728 50.1673 68.3099C50.2336 68.1776 50.2999 68.0454 50.3661 67.9792C50.6975 67.318 51.0951 66.6567 51.4265 66.0615L52.0892 64.9374V64.8712C52.2217 62.6229 53.8785 60.9036 55.1376 59.2504C56.3968 57.5311 57.3908 54.9521 56.2642 53.1005C57.0595 53.5634 57.9873 52.5715 58.3849 51.5796C58.7825 50.5877 59.0476 49.3974 59.8429 48.9345C60.5056 48.5377 61.2345 48.7361 61.9635 48.6038C62.3611 48.5377 62.6925 48.3393 62.9576 48.141C63.2227 47.7442 63.554 47.3474 63.8191 46.9507C64.4155 45.6942 64.4155 44.041 63.4877 43.0491C65.4096 42.5201 66.8013 40.1395 66.4699 37.8912C67.7953 39.0153 69.5184 37.3622 70.4462 35.8412C72.5668 32.601 74.6875 29.4268 76.8082 26.1866C77.2721 25.5253 77.7359 24.7979 78.3987 24.4673C79.6578 23.806 81.2483 24.5995 82.4412 23.806C83.0376 23.4092 83.369 22.6818 83.7666 22.0205C86.2849 18.2513 91.2552 18.3174 94.635 15.6062C95.8941 14.6142 96.8882 13.1594 98.2136 12.2998C99.539 11.374 101.328 11.0433 102.521 12.2336C102.389 12.4982 102.322 12.6965 102.19 12.8949C102.256 12.8949 102.322 12.8288 102.389 12.8288C103.184 12.432 104.045 12.0353 104.907 11.7708C106.034 11.1095 107.293 10.6466 108.552 10.2498Z" fill="#EBE3CC"/>
<path d="M196.691 52.7699C196.294 52.9683 195.896 53.2328 195.499 53.5634C193.908 54.7537 192.781 56.5392 191.522 58.1262C189.203 61.102 186.486 63.681 183.504 65.7309C183.305 67.318 181.979 68.5744 180.588 68.5744C180.455 69.7647 180.389 70.8889 180.323 72.0792C176.611 76.5758 173.696 81.9983 171.906 87.8175C171.177 87.8837 170.382 88.0159 169.653 88.0821C168.261 91.0578 166.936 93.9674 165.544 96.9432C164.749 97.1415 164.086 97.8028 163.424 98.4641C162.098 99.8528 160.773 101.241 160.044 103.159C159.116 105.54 159.381 108.383 158.453 110.764C157.923 112.02 157.128 113.078 156.73 114.335C156.399 115.393 156.465 116.649 156.995 117.509C156.863 117.839 156.664 118.104 156.531 118.435C154.61 119.36 152.953 121.08 151.892 123.262C151.362 123.526 150.766 123.725 150.236 123.989C149.175 125.51 148.115 127.031 147.055 128.552C146.061 128.618 145.067 128.751 144.073 128.817C142.88 130.205 141.753 131.594 140.56 133.049C141.952 133.379 143.277 133.776 144.669 134.107C144.802 134.9 144.536 135.76 144.006 136.355C144.073 138.273 144.139 140.191 144.205 142.108C143.741 143.1 143.211 144.026 142.747 145.018C142.018 145.878 141.422 146.936 141.223 148.06C141.223 148.126 141.157 148.192 141.157 148.258C139.5 147.729 137.843 147.663 136.186 147.994C136.716 149.713 137.313 151.366 137.843 153.086C136.319 155.664 134.795 158.31 133.27 160.889C133.999 162.013 133.138 163.666 132.011 164.063C130.885 164.459 129.626 163.997 128.565 163.468C129.095 165.782 128.565 168.361 127.24 170.146C128.035 170.543 128.101 171.866 127.704 172.725C127.306 173.585 126.511 174.114 125.914 174.709C124.059 176.561 123.065 179.272 122.071 181.851C121.474 183.504 120.878 185.157 120.281 186.811C118.823 190.844 115.51 191.969 113.787 195.87C113.588 196.333 114.118 197.986 114.383 199.243C114.052 199.904 113.654 200.499 113.257 201.16C113.19 201.226 113.058 201.226 112.925 201.293C111.534 201.822 110.009 204.599 109.943 204.599C109.943 204.599 109.612 205.657 109.545 206.583L109.28 206.517C109.28 205.591 109.347 204.665 109.413 203.739C109.413 203.409 109.479 203.012 109.479 202.681C109.479 202.549 109.479 202.417 109.479 202.218C109.479 201.888 109.545 201.557 109.545 201.16C109.678 199.639 109.811 198.185 110.009 196.664C110.076 196.267 110.076 195.87 110.142 195.539C110.208 195.143 110.208 194.746 110.274 194.415C110.54 192.431 110.871 190.448 111.136 188.464C111.269 187.803 111.335 187.207 111.467 186.612C111.732 185.29 111.931 183.901 112.196 182.578C112.395 181.719 112.528 180.859 112.726 179.999C112.859 179.206 113.058 178.412 113.257 177.619C113.257 177.553 113.257 177.487 113.323 177.42C113.853 174.841 114.516 172.263 115.112 169.684C115.178 169.485 115.178 169.353 115.245 169.155C115.377 168.493 115.576 167.832 115.775 167.171C115.907 166.642 116.04 166.113 116.173 165.584C116.239 165.319 116.305 164.988 116.438 164.724C116.902 162.939 117.432 161.219 117.962 159.434C118.558 157.516 119.088 155.664 119.751 153.813C120.083 152.887 120.348 151.961 120.679 151.036C124.788 138.868 129.692 127.097 135.59 115.856C136.451 114.136 137.379 112.417 138.373 110.698C138.837 109.904 139.301 109.045 139.699 108.251C139.765 108.185 139.765 108.119 139.831 108.053C139.897 107.854 140.03 107.722 140.096 107.524C142.416 103.49 144.868 99.5883 147.386 95.7529C148.513 94.0335 149.706 92.3803 150.898 90.7272C151.163 90.3304 151.495 89.9336 151.76 89.5369C152.555 88.4788 153.35 87.4208 154.146 86.3627C156.531 83.3209 158.917 80.3451 161.568 77.5678C164.086 74.7243 166.87 72.0792 169.653 69.5002C171.111 68.2438 172.503 67.0535 173.961 65.797C174.69 65.2019 175.419 64.6067 176.214 64.0777L178.467 62.4245C179.262 61.8955 179.991 61.3004 180.786 60.8375C181.582 60.3746 182.377 59.8456 183.172 59.3827C184.763 58.4569 186.287 57.465 188.01 56.6714C188.739 56.2747 189.534 55.944 190.263 55.5473C190.329 55.5473 190.396 55.4811 190.462 55.4811C191.257 55.0844 192.119 54.6876 192.98 54.4231C194.173 53.5634 195.432 53.1667 196.691 52.7699Z" fill="#EBE3CC"/>
<path d="M196.691 52.7699C196.294 52.9683 195.896 53.2328 195.499 53.5634C193.908 54.7537 192.781 56.5392 191.522 58.1262C189.203 61.102 186.486 63.681 183.504 65.7309C183.305 67.318 181.979 68.5744 180.588 68.5744C180.455 69.7647 180.389 70.8889 180.323 72.0792C176.611 76.5758 173.696 81.9983 171.906 87.8175C171.177 87.8837 170.382 88.0159 169.653 88.0821C168.261 91.0578 166.936 93.9674 165.544 96.9432C164.749 97.1415 164.086 97.8028 163.424 98.4641C162.098 99.8528 160.773 101.241 160.044 103.159C159.116 105.54 159.381 108.383 158.453 110.764C157.923 112.02 157.128 113.078 156.73 114.335C156.399 115.393 156.465 116.649 156.995 117.509C156.863 117.839 156.664 118.104 156.531 118.435C154.61 119.36 152.953 121.08 151.892 123.262C151.362 123.526 150.766 123.725 150.236 123.989C149.175 125.51 148.115 127.031 147.055 128.552C146.061 128.618 145.067 128.751 144.073 128.817C142.88 130.205 141.753 131.594 140.56 133.049C141.952 133.379 143.277 133.776 144.669 134.107C144.802 134.9 144.536 135.76 144.006 136.355C144.073 138.273 144.139 140.191 144.205 142.108C143.741 143.1 143.211 144.026 142.747 145.018C142.018 145.878 141.422 146.936 141.223 148.06C141.223 148.126 141.157 148.192 141.157 148.258C139.5 147.729 137.843 147.663 136.186 147.994C136.716 149.713 137.313 151.366 137.843 153.086C136.319 155.664 134.795 158.31 133.27 160.889C133.999 162.013 133.138 163.666 132.011 164.063C130.885 164.459 129.626 163.997 128.565 163.468C129.095 165.782 128.565 168.361 127.24 170.146C128.035 170.543 128.101 171.866 127.704 172.725C127.306 173.585 126.511 174.114 125.914 174.709C124.059 176.561 123.065 179.272 122.071 181.851C121.474 183.504 120.878 185.157 120.281 186.811C118.823 190.844 115.51 191.969 113.787 195.87C113.588 196.333 114.118 197.986 114.383 199.243C114.052 199.904 113.654 200.499 113.257 201.16C113.19 201.226 113.058 201.226 112.925 201.293C111.534 201.822 110.009 204.599 109.943 204.599C109.943 204.599 109.612 205.657 109.545 206.583L109.28 206.517C109.28 205.591 109.347 204.665 109.413 203.739C109.413 203.409 109.479 203.012 109.479 202.681C109.479 202.549 109.479 202.417 109.479 202.218C109.479 201.888 109.545 201.557 109.545 201.16C109.678 199.639 109.811 198.185 110.009 196.664C110.076 196.267 110.076 195.87 110.142 195.539C110.076 194.548 110.009 193.556 109.811 192.564C109.612 191.704 109.413 190.778 109.545 189.919C109.744 188.53 110.738 187.604 111.467 186.546C111.732 185.224 111.931 183.835 112.196 182.512C112.395 181.653 112.528 180.793 112.726 179.933C112.859 179.14 113.058 178.346 113.257 177.553C113.257 177.487 113.257 177.42 113.323 177.354C112.992 175.966 112.461 174.643 111.732 173.585C112.66 172.064 113.853 170.675 115.178 169.617C115.245 169.419 115.245 169.287 115.311 169.088C115.444 168.427 115.642 167.766 115.841 167.105C115.974 166.576 116.106 166.047 116.239 165.518C116.305 165.253 116.371 164.922 116.504 164.658C116.636 164.261 116.703 163.864 116.835 163.468C116.173 160.558 117.167 157.185 119.221 155.4C119.42 154.871 119.552 154.276 119.751 153.747C120.083 152.821 120.348 151.895 120.679 150.969C120.745 150.771 120.811 150.573 120.878 150.374C120.745 149.845 120.745 149.25 120.745 148.721C121.01 145.481 122.004 142.373 123.661 139.728C124.39 138.537 125.318 137.479 125.848 136.157C127.107 133.247 126.71 129.544 128.433 127.031C129.162 126.039 130.156 125.312 130.62 124.188C131.547 122.204 130.818 119.162 132.409 117.839C132.873 117.443 133.469 117.31 133.867 116.781C134.53 115.79 133.801 114.269 134.132 113.078C134.596 111.425 136.584 111.359 138.108 110.896C138.174 110.83 138.174 110.764 138.241 110.632C138.705 109.838 139.168 108.978 139.566 108.185C139.632 108.119 139.632 108.053 139.699 107.986C139.765 107.788 139.897 107.656 139.964 107.457V107.391C140.096 105.143 141.753 103.49 143.012 101.77C144.271 100.051 145.332 97.4722 144.139 95.6867C144.934 96.1496 145.862 95.1577 146.259 94.1658C146.657 93.1739 146.922 91.9836 147.717 91.5207C148.38 91.1239 149.109 91.3223 149.838 91.19C150.236 91.1239 150.567 90.9255 150.898 90.7272C151.163 90.3304 151.495 89.9336 151.76 89.5369C152.356 88.2804 152.356 86.6272 151.429 85.6353C153.35 85.1063 154.742 82.7257 154.411 80.4774C155.736 81.6015 157.459 79.9484 158.453 78.4274C160.574 75.1872 162.695 72.013 164.815 68.7728C165.279 68.1115 165.743 67.3841 166.406 67.0535C167.665 66.3922 169.255 67.1857 170.448 66.3922C171.045 65.9954 171.376 65.268 171.774 64.6067C174.292 60.8375 179.262 60.9036 182.642 58.1262C183.901 57.1343 184.895 55.7456 186.221 54.8199C187.546 53.8941 189.335 53.5634 190.528 54.7537C190.396 54.9521 190.329 55.2166 190.197 55.415C190.263 55.415 190.329 55.3489 190.396 55.3489C191.191 54.9521 192.053 54.5553 192.914 54.2908C194.173 53.5634 195.432 53.1667 196.691 52.7699Z" fill="#EBE3CC"/>
<path d="M56.1976 23.0125C55.9325 23.1447 55.6674 23.3431 55.4023 23.5415C54.4083 24.335 53.613 25.4592 52.8178 26.4511C51.2935 28.3688 49.5705 30.022 47.6486 31.3445C47.5161 32.3364 46.6546 33.1961 45.7931 33.1961C45.7268 33.9235 45.6605 34.6509 45.5942 35.4444C43.2085 38.3541 41.3529 41.7927 40.16 45.562C39.6962 45.6281 39.166 45.6942 38.7021 45.7604C37.8406 47.6781 36.9128 49.5296 36.0513 51.4473C35.5211 51.5796 35.1235 51.9764 34.7259 52.4393C33.8643 53.2989 33.0028 54.2247 32.5389 55.415C31.9425 56.9359 32.1413 58.7875 31.5449 60.3084C31.2135 61.102 30.6833 61.7632 30.4183 62.6229C30.2194 63.2842 30.2194 64.1438 30.6171 64.6729C30.4845 64.8713 30.4183 65.0696 30.2857 65.268C29.0266 65.8632 27.9662 66.9873 27.3035 68.376C26.9722 68.5083 26.5746 68.7067 26.2432 68.8389C25.5805 69.8308 24.8515 70.8227 24.1888 71.7485C23.5261 71.8146 22.9297 71.8808 22.267 71.9469C21.538 72.8727 20.7427 73.7324 20.0138 74.6581C20.8753 74.9227 21.8031 75.121 22.6646 75.3855C22.7309 75.9146 22.5983 76.4436 22.267 76.8403L22.3995 80.5435C22.0681 81.1386 21.7368 81.7338 21.4717 82.3951C21.0078 82.9241 20.6102 83.5854 20.4776 84.3789C20.4776 84.3789 20.4776 84.445 20.4114 84.5112C19.351 84.1805 18.2907 84.1144 17.2304 84.3128C17.5617 85.4369 17.9594 86.495 18.2907 87.553C17.2967 89.2062 16.3026 90.9255 15.3748 92.5787C15.8387 93.3061 15.3085 94.3642 14.5796 94.6287C13.8506 94.8932 13.0553 94.5626 12.3264 94.2319C12.6577 95.6867 12.3264 97.3399 11.4648 98.5302C11.995 98.7947 11.995 99.6544 11.7299 100.183C11.4648 100.712 11.0009 101.043 10.537 101.506C9.34417 102.696 8.68146 104.416 8.08503 106.069C7.6874 107.127 7.28978 108.185 6.95842 109.243C6.03063 111.822 3.90997 112.549 2.78337 115.062C2.65083 115.327 2.98218 116.385 3.18099 117.178C2.91591 117.575 2.7171 117.972 2.45202 118.435C2.38575 118.435 2.31947 118.501 2.2532 118.501C1.39169 118.831 0.397624 120.617 0.331354 120.617C0.331354 120.617 0.132541 121.278 0.0662707 121.939L0 121.807C0 121.146 0.0662707 120.485 0.0662707 119.823C0.0662707 119.493 0.132541 119.162 0.132541 118.831C0.132541 118.501 0.198812 118.104 0.198812 117.773C0.198812 117.443 0.265083 117.178 0.265083 116.848C0.265083 116.649 0.331354 116.451 0.331354 116.252C0.331354 115.988 0.397624 115.79 0.397624 115.525C0.397624 115.261 0.463895 114.93 0.530166 114.665C0.530166 114.401 0.596436 114.136 0.596436 113.938C0.728978 112.615 0.92779 111.359 1.19287 110.103C1.25914 109.706 1.32541 109.309 1.39168 108.912C1.52423 108.053 1.72304 107.193 1.85558 106.333C2.05439 105.209 2.31947 104.085 2.51829 103.027C2.84964 101.374 3.24726 99.7205 3.71116 98.0673C3.8437 97.406 4.04251 96.7448 4.24133 96.0835C4.44014 95.4222 4.57268 94.7609 4.77149 94.0997C5.03657 93.24 5.30166 92.3803 5.50047 91.4546C5.76555 90.5949 6.03063 89.7352 6.29572 88.8756C6.62707 87.8175 6.95842 86.6934 7.35605 85.6353C9.94061 77.9645 13.1216 70.5582 16.7665 63.4164C17.2967 62.3584 17.8931 61.3004 18.4233 60.2423C18.4895 60.1762 18.5558 60.0439 18.5558 59.9778C18.8209 59.5149 19.0197 59.1181 19.2848 58.6552C19.4173 58.4569 19.4836 58.2585 19.6161 58.0601C21.0741 55.4811 22.6646 52.9683 24.3214 50.5216C25.0503 49.3974 25.7793 48.3393 26.5746 47.2813C26.7734 47.0168 26.9722 46.7523 27.1047 46.4878C27.6349 45.8265 28.0988 45.0991 28.6289 44.4378C30.1532 42.5201 31.7437 40.6024 33.4004 38.7508C35.0572 36.8993 36.7802 35.2461 38.5696 33.5267C39.4973 32.7332 40.4251 31.9397 41.3529 31.1462C41.8168 30.7494 42.2807 30.4187 42.8109 30.022L44.2688 28.9639C44.799 28.6333 45.2629 28.2365 45.7268 27.9059C46.257 27.5753 46.7209 27.2446 47.251 26.9801C48.2451 26.385 49.2391 25.7237 50.3657 25.2608C50.8296 24.9963 51.3598 24.7979 51.8237 24.5334C51.89 24.5334 51.89 24.4673 51.9562 24.4673C52.4864 24.2027 53.0166 23.9382 53.5467 23.806C54.5408 23.6076 55.4023 23.277 56.1976 23.0125Z" fill="#EBE3CC"/>
<path d="M56.1976 23.0125C55.9325 23.1447 55.6674 23.3431 55.4023 23.5415C54.4083 24.335 53.613 25.4592 52.8178 26.4511C51.2935 28.3688 49.5705 30.022 47.6486 31.3445C47.5161 32.3364 46.6546 33.1961 45.7931 33.1961C45.7268 33.9235 45.6605 34.6509 45.5942 35.4444C43.2085 38.3541 41.3529 41.7927 40.16 45.562C39.6962 45.6281 39.166 45.6942 38.7021 45.7604C37.8406 47.6781 36.9128 49.5296 36.0513 51.4473C35.5211 51.5796 35.1235 51.9764 34.7259 52.4393C33.8643 53.2989 33.0028 54.2247 32.5389 55.415C31.9425 56.9359 32.1413 58.7875 31.5449 60.3084C31.2135 61.102 30.6833 61.7632 30.4183 62.6229C30.2194 63.2842 30.2194 64.1438 30.6171 64.6729C30.4845 64.8713 30.4183 65.0696 30.2857 65.268C29.0266 65.8632 27.9662 66.9873 27.3035 68.376C26.9722 68.5083 26.5746 68.7067 26.2432 68.8389C25.5805 69.8308 24.8515 70.8227 24.1888 71.7485C23.5261 71.8146 22.9297 71.8808 22.267 71.9469C21.538 72.8727 20.7427 73.7324 20.0138 74.6581C20.8753 74.9227 21.8031 75.121 22.6646 75.3855C22.7309 75.9146 22.5983 76.4436 22.267 76.8403L22.3995 80.5435C22.0681 81.1386 21.7368 81.7338 21.4717 82.3951C21.0078 82.9241 20.6102 83.5854 20.4776 84.3789C20.4776 84.3789 20.4776 84.445 20.4114 84.5112C19.351 84.1805 18.2907 84.1144 17.2304 84.3128C17.5617 85.4369 17.9594 86.495 18.2907 87.553C17.2967 89.2062 16.3026 90.9255 15.3748 92.5787C15.8387 93.3061 15.3085 94.3642 14.5796 94.6287C13.8506 94.8932 13.0553 94.5626 12.3264 94.2319C12.6577 95.6867 12.3264 97.3399 11.4648 98.5302C11.995 98.7947 11.995 99.6544 11.7299 100.183C11.4648 100.712 11.0009 101.043 10.537 101.506C9.34417 102.696 8.68146 104.416 8.08503 106.069C7.6874 107.127 7.28978 108.185 6.95842 109.243C6.03063 111.822 3.90997 112.549 2.78337 115.062C2.65083 115.327 2.98218 116.385 3.18099 117.178C2.91591 117.575 2.7171 117.972 2.45202 118.435C2.38575 118.435 2.31947 118.501 2.2532 118.501C1.39169 118.831 0.397624 120.617 0.331354 120.617C0.331354 120.617 0.132541 121.278 0.0662707 121.939L0 121.807C0 121.146 0.0662707 120.485 0.0662707 119.823C0.0662707 119.493 0.132541 119.162 0.132541 118.831C0.132541 118.501 0.198812 118.104 0.198812 117.773C0.198812 117.443 0.265083 117.178 0.265083 116.848C0.265083 116.649 0.331354 116.451 0.331354 116.252C0.331354 115.988 0.397624 115.79 0.397624 115.525C0.397624 115.261 0.463895 114.93 0.530166 114.665C0.463895 114.004 0.397624 113.343 0.331354 112.748C0.198812 112.219 0.0662707 111.623 0.198812 111.094C0.331354 110.235 0.92779 109.574 1.45796 108.912C1.5905 108.053 1.78931 107.193 1.92185 106.333C2.12066 105.209 2.38575 104.085 2.58456 103.027C2.38575 102.167 2.05439 101.308 1.52423 100.58C2.12066 99.5883 2.84964 98.7286 3.71116 98.0673C3.8437 97.406 4.04251 96.7448 4.24133 96.0835C4.44014 95.4222 4.57268 94.7609 4.77149 94.0997C4.37387 92.2481 4.9703 90.0659 6.29572 88.8756C6.62707 87.8175 6.95842 86.6934 7.35605 85.6353C7.22351 85.3047 7.28978 84.9079 7.28978 84.5773C7.42232 82.5273 8.08503 80.4774 9.14536 78.8242C9.60925 78.0306 10.2057 77.3694 10.537 76.5097C11.3323 74.6581 11.0672 72.2775 12.1938 70.6244C12.6577 69.9631 13.3204 69.5002 13.6518 68.7728C14.2482 67.4502 13.7843 65.5325 14.8446 64.6729C15.176 64.4084 15.5073 64.3422 15.7724 64.0116C16.2363 63.3503 15.7062 62.3584 15.905 61.631C16.2363 60.5729 17.4955 60.5729 18.4233 60.2423C18.4895 60.1762 18.5558 60.0439 18.5558 59.9778C18.8209 59.5149 19.0197 59.1181 19.2848 58.6552C19.4173 58.4569 19.4836 58.2585 19.6161 58.0601C19.6161 58.0601 19.6161 58.0601 19.6161 57.994C19.6824 56.5392 20.7427 55.4811 21.538 54.357C22.3332 53.2328 22.9959 51.5796 22.267 50.3893C22.7971 50.7199 23.3936 50.0587 23.5924 49.3974C23.7912 48.7361 23.99 48.0087 24.5202 47.6781C24.9178 47.4135 25.3817 47.5458 25.8456 47.4797C26.1107 47.4136 26.3095 47.3474 26.5083 47.149C26.7071 46.8845 26.9059 46.62 27.0384 46.3555C27.4361 45.562 27.4361 44.5039 26.8396 43.8427C28.0988 43.512 28.9603 41.9911 28.7615 40.5363C29.623 41.2637 30.6833 40.2056 31.346 39.2137C32.7377 37.1638 34.0631 35.0477 35.4548 32.9977C35.7199 32.5348 36.0513 32.1381 36.4489 31.8736C37.2441 31.4768 38.3045 31.9397 39.0334 31.4768C39.4311 31.2123 39.6299 30.7494 39.895 30.3526C41.5517 27.9059 44.7327 27.972 46.8534 26.1866C47.6486 25.5253 48.3113 24.6656 49.1729 24.0705C50.0344 23.4753 51.161 23.277 51.89 24.0044C51.8237 24.1366 51.7574 24.335 51.6912 24.4673C51.7574 24.4673 51.7574 24.4011 51.8237 24.4011C52.3539 24.1366 52.884 23.8721 53.4142 23.7399C54.5408 23.6076 55.4023 23.277 56.1976 23.0125Z" fill="#EBE3CC"/>
<path d="M212 98.5302C211.735 98.6625 211.47 98.8609 211.205 99.0592C210.211 99.8528 209.415 100.977 208.62 102.035C207.096 103.953 205.373 105.606 203.451 106.928C203.319 107.92 202.457 108.78 201.596 108.78C201.529 109.507 201.463 110.301 201.397 111.028C199.011 113.938 197.155 117.377 195.963 121.146C195.499 121.212 194.968 121.278 194.505 121.344C193.643 123.262 192.715 125.114 191.854 127.031C191.324 127.163 190.926 127.626 190.528 128.023C189.667 128.883 188.805 129.809 188.341 130.999C187.745 132.52 187.944 134.371 187.347 135.892C187.016 136.686 186.486 137.347 186.221 138.207C186.022 138.868 186.022 139.728 186.42 140.257C186.287 140.455 186.221 140.654 186.088 140.852C184.829 141.447 183.769 142.571 183.106 143.96C182.775 144.092 182.377 144.291 182.046 144.423C181.383 145.415 180.654 146.407 179.991 147.332C179.329 147.399 178.732 147.465 178.069 147.531C177.34 148.457 176.545 149.316 175.816 150.242C176.678 150.44 177.539 150.705 178.467 150.969C178.533 151.498 178.401 152.027 178.069 152.424C178.069 153.681 178.136 154.937 178.202 156.127C177.871 156.723 177.606 157.384 177.274 157.979C176.81 158.508 176.413 159.169 176.28 159.963C176.28 159.963 176.28 160.029 176.214 160.095C175.153 159.764 174.093 159.698 173.033 159.897C173.364 160.955 173.762 162.079 174.093 163.137C173.099 164.79 172.105 166.509 171.177 168.163C171.641 168.89 171.111 169.948 170.382 170.213C169.653 170.477 168.858 170.146 168.129 169.816C168.46 171.271 168.129 172.924 167.267 174.114C167.731 174.379 167.797 175.172 167.532 175.767C167.267 176.296 166.803 176.627 166.339 177.09C165.147 178.28 164.484 179.999 163.887 181.653C163.49 182.711 163.092 183.769 162.761 184.827C161.833 187.406 159.712 188.133 158.586 190.646C158.453 190.911 158.785 191.969 158.983 192.762C158.785 193.159 158.52 193.556 158.254 194.019C158.188 194.019 158.122 194.085 158.056 194.085C157.194 194.415 156.2 196.201 156.134 196.201C156.134 196.201 155.869 196.862 155.869 197.523L155.736 197.457C155.736 197.193 155.736 196.862 155.736 196.597C155.736 196.399 155.736 196.135 155.736 195.936C155.736 195.539 155.802 195.209 155.802 194.812C155.869 194.217 155.869 193.688 155.935 193.093C156.001 192.233 156.134 191.373 156.2 190.448C156.2 190.183 156.266 189.919 156.266 189.72C156.399 188.464 156.598 187.141 156.863 185.885C156.929 185.488 156.995 185.091 157.062 184.695C157.062 184.628 157.062 184.562 157.128 184.496C157.26 183.703 157.393 182.909 157.592 182.116C157.724 181.587 157.791 180.991 157.923 180.462C158.056 179.933 158.122 179.338 158.254 178.809C158.586 177.156 158.983 175.503 159.447 173.85C159.447 173.783 159.447 173.717 159.514 173.651C159.646 173.122 159.779 172.593 159.911 172.13C160.11 171.403 160.309 170.675 160.508 169.948C160.773 169.088 161.038 168.163 161.237 167.303C161.502 166.443 161.767 165.584 162.032 164.724C162.363 163.666 162.695 162.542 163.092 161.484C165.677 153.813 168.858 146.34 172.503 139.265C173.033 138.207 173.629 137.149 174.159 136.091C174.159 136.025 174.226 135.958 174.226 135.958C174.557 135.297 174.955 134.636 175.352 133.975C175.352 133.975 175.352 133.908 175.419 133.908C176.877 131.33 178.467 128.817 180.124 126.37C180.853 125.312 181.582 124.188 182.377 123.196C182.576 122.931 182.775 122.667 182.907 122.402C183.437 121.741 183.901 121.014 184.431 120.352C185.956 118.435 187.546 116.517 189.203 114.731C190.86 112.88 192.583 111.161 194.372 109.507C195.3 108.714 196.228 107.92 197.155 107.127C197.619 106.73 198.083 106.399 198.547 106.003L200.005 104.945C200.469 104.614 200.999 104.217 201.463 103.887C201.993 103.556 202.457 103.225 202.987 102.961C203.981 102.366 204.975 101.704 206.102 101.241C206.566 100.977 207.096 100.779 207.56 100.514C207.626 100.514 207.626 100.448 207.692 100.448C208.223 100.183 208.753 99.9189 209.283 99.7866C210.41 99.0592 211.205 98.7947 212 98.5302Z" fill="#EBE3CC"/>
<path d="M212 98.5302C211.735 98.6625 211.47 98.8609 211.205 99.0592C210.211 99.8528 209.415 100.977 208.62 102.035C207.096 103.953 205.373 105.606 203.451 106.928C203.319 107.92 202.457 108.78 201.596 108.78C201.529 109.507 201.463 110.301 201.397 111.028C199.011 113.938 197.155 117.377 195.963 121.146C195.499 121.212 194.968 121.278 194.505 121.344C193.643 123.262 192.715 125.114 191.854 127.031C191.324 127.163 190.926 127.626 190.528 128.023C189.667 128.883 188.805 129.809 188.341 130.999C187.745 132.52 187.944 134.371 187.347 135.892C187.016 136.686 186.486 137.347 186.221 138.207C186.022 138.868 186.022 139.728 186.42 140.257C186.287 140.455 186.221 140.654 186.088 140.852C184.829 141.447 183.769 142.571 183.106 143.96C182.775 144.092 182.377 144.291 182.046 144.423C181.383 145.415 180.654 146.407 179.991 147.332C179.329 147.399 178.732 147.465 178.069 147.531C177.34 148.457 176.545 149.316 175.816 150.242C176.678 150.44 177.539 150.705 178.467 150.969C178.533 151.498 178.401 152.027 178.069 152.424C178.069 153.681 178.136 154.937 178.202 156.127C177.871 156.723 177.606 157.384 177.274 157.979C176.81 158.508 176.413 159.169 176.28 159.963C176.28 159.963 176.28 160.029 176.214 160.095C175.153 159.764 174.093 159.698 173.033 159.897C173.364 160.955 173.762 162.079 174.093 163.137C173.099 164.79 172.105 166.509 171.177 168.163C171.641 168.89 171.111 169.948 170.382 170.213C169.653 170.477 168.858 170.146 168.129 169.816C168.46 171.271 168.129 172.924 167.267 174.114C167.731 174.379 167.797 175.172 167.532 175.767C167.267 176.296 166.803 176.627 166.339 177.09C165.147 178.28 164.484 179.999 163.887 181.653C163.49 182.711 163.092 183.769 162.761 184.827C161.833 187.406 159.712 188.133 158.586 190.646C158.453 190.911 158.785 191.969 158.983 192.762C158.785 193.159 158.52 193.556 158.254 194.019C158.188 194.019 158.122 194.085 158.056 194.085C157.194 194.415 156.2 196.201 156.134 196.201C156.134 196.201 155.869 196.862 155.869 197.523L155.736 197.457C155.736 197.193 155.736 196.862 155.736 196.597C155.736 196.399 155.736 196.135 155.736 195.936C155.736 195.539 155.802 195.209 155.802 194.812C155.869 194.217 155.869 193.688 155.935 193.093C156.001 192.233 156.134 191.373 156.2 190.448C156.134 189.786 156.134 189.125 156.001 188.53C155.869 188.001 155.736 187.406 155.802 186.877C155.935 186.017 156.531 185.356 157.062 184.695C157.062 184.628 157.062 184.562 157.128 184.496C157.26 183.703 157.393 182.909 157.592 182.116C157.724 181.587 157.791 180.991 157.923 180.462C158.056 179.933 158.122 179.338 158.254 178.809C158.056 177.949 157.724 177.09 157.194 176.362C157.791 175.371 158.52 174.511 159.381 173.85C159.381 173.783 159.381 173.717 159.447 173.651C159.58 173.122 159.712 172.593 159.845 172.13C160.044 171.403 160.243 170.675 160.441 169.948C160.044 168.096 160.64 165.914 161.966 164.724C162.297 163.666 162.628 162.542 163.026 161.484C162.893 161.153 162.893 160.756 162.96 160.426C163.092 158.376 163.755 156.326 164.815 154.673C165.279 153.879 165.876 153.218 166.207 152.358C167.002 150.507 166.737 148.126 167.864 146.473C168.328 145.811 168.99 145.349 169.322 144.621C169.918 143.299 169.454 141.381 170.515 140.521C170.846 140.257 171.177 140.191 171.442 139.86C171.906 139.199 171.376 138.273 171.575 137.479C171.84 136.421 173.165 136.355 174.093 136.025C174.093 135.958 174.159 135.892 174.159 135.892C174.491 135.231 174.888 134.57 175.286 133.908C175.286 133.908 175.286 133.842 175.352 133.842V133.776C175.419 132.321 176.479 131.263 177.274 130.139C178.069 129.015 178.732 127.362 178.003 126.238C178.533 126.568 179.13 125.907 179.329 125.246C179.594 124.584 179.726 123.857 180.256 123.526C180.654 123.262 181.118 123.394 181.582 123.328C181.847 123.262 182.046 123.196 182.244 122.997C182.443 122.733 182.642 122.468 182.775 122.204C183.106 121.41 183.106 120.352 182.576 119.691C183.835 119.36 184.696 117.839 184.498 116.385C185.359 117.112 186.42 116.054 187.082 115.062C188.474 113.012 189.799 110.896 191.191 108.846C191.456 108.383 191.787 107.986 192.185 107.722C192.98 107.325 194.041 107.788 194.77 107.259C195.167 106.995 195.366 106.532 195.631 106.135C197.222 103.754 200.469 103.754 202.59 101.969C203.385 101.308 204.048 100.448 204.909 99.8528C205.771 99.2576 206.897 99.0592 207.692 99.7866C207.626 99.9189 207.56 100.051 207.494 100.25C207.56 100.25 207.56 100.183 207.626 100.183C208.156 99.9189 208.686 99.6544 209.217 99.5221C210.41 99.0592 211.205 98.7947 212 98.5302Z" fill="#EBE3CC"/>
<path d="M178.931 0.396792C175.087 1.91773 171.774 5.22411 168.858 8.66275C158.984 20.3012 151.628 34.5848 141.223 45.6281C140.295 51.9763 136.584 57.7956 131.614 60.5729C129.096 61.6971 126.312 61.8955 123.661 61.102C124.788 62.6229 125.848 64.21 126.975 65.7309C124.921 66.326 124.854 69.6324 124.854 72.0791C124.788 81.2048 118.824 88.6111 113.986 95.819C108.817 103.49 104.575 111.888 100.334 120.286C99.2738 122.402 98.2135 124.452 97.1531 126.568C94.3698 132.123 90.5923 138.339 85.0256 138.604C83.6339 138.67 82.1759 138.339 80.9168 138.934C79.6577 139.529 78.7961 141.645 79.7902 142.77C83.0375 141.579 85.8871 145.811 86.7486 149.647C87.6101 153.086 86.8149 158.243 83.7002 158.243C83.5676 159.698 83.4351 161.153 83.3025 162.542C79.26 166.509 75.2175 170.543 71.175 174.511C71.9703 177.288 71.8377 180.396 70.8436 183.107C69.0543 185.091 65.8733 185.025 64.1503 182.909C64.084 185.224 64.084 187.472 64.0178 189.786C63.0237 189.919 62.1622 190.448 61.4332 191.175C62.1622 192.233 62.9574 193.291 63.6864 194.349C61.632 198.846 59.5114 203.409 57.457 207.905C55.8665 211.344 54.276 214.783 52.3541 217.957C51.3601 219.544 49.8358 220.8 48.1791 219.941C48.1791 222.387 48.1791 225.032 48.8418 227.215C48.5104 227.81 48.1128 228.339 47.7814 228.934L46.9199 228.603C47.0525 223.115 47.5826 217.692 48.2453 212.336C48.1791 210.815 48.0465 209.294 47.7152 207.839C47.4501 206.583 47.1187 205.26 47.3175 203.938C47.5826 202.02 48.908 200.631 50.0346 199.11C49.1731 198.581 48.1791 198.251 47.2513 198.185C49.3057 194.217 50.6974 189.786 51.2938 185.157C51.4263 184.099 51.4926 183.041 51.8902 182.049C51.4926 181.19 51.0287 180.33 50.4985 179.537C51.824 177.354 53.4145 175.437 55.27 173.916C55.4026 171.535 54.8061 169.155 53.4807 167.303C54.4748 167.038 55.4688 166.708 56.4629 166.443C56.5954 165.187 57.1256 164.063 57.722 163.005C57.3907 159.566 58.5173 155.863 60.638 153.416C60.7705 150.837 60.3729 148.192 59.5114 145.811C62.2285 145.745 63.6201 141.778 63.3551 138.67C63.09 135.496 61.8971 132.388 62.4935 129.28C64.4817 129.742 66.7349 128.288 67.4638 126.105C67.7952 125.047 67.8615 123.791 68.1266 122.667C68.8555 119.757 70.9762 117.839 73.2294 115.988C73.627 113.938 74.1572 112.02 75.2838 110.367C76.3441 108.912 77.8021 107.788 78.5973 106.135C79.989 103.159 78.8624 98.6625 81.3144 96.7448C81.5795 96.5464 81.8446 96.348 82.1759 96.2157C82.2422 96.1496 82.3085 96.0174 82.3085 95.9512C82.7061 95.0916 82.7724 94.0335 82.9712 93.0416C83.1037 92.3142 83.3688 91.5868 83.7002 90.9917C83.7002 90.5288 83.7002 90.0659 83.8327 89.6691C84.4954 87.2224 87.4113 87.1562 89.6645 86.4288C88.4054 84.5111 87.2788 82.3289 87.4113 80.0145C87.6101 77.4355 90.4598 75.2533 92.1165 76.9726C95.2975 74.7243 97.1531 70.2937 96.7555 65.9954C97.6833 66.1277 98.6111 65.797 99.34 65.268C99.2075 64.739 99.0087 64.2761 98.7436 63.8132C99.8702 64.4745 101.063 63.2842 101.726 61.9616C102.123 60.6391 102.19 59.1843 101.66 57.9278C102.389 58.0601 103.117 58.0601 103.846 57.8617C103.913 57.7956 103.979 57.7294 104.112 57.6633C104.377 57.4649 104.708 57.3988 105.039 57.3327C106.1 56.7375 106.961 55.8117 107.491 54.5553C108.287 54.6876 109.082 54.7537 109.943 54.886C110.01 54.8198 110.01 54.7537 110.076 54.6876C110.142 54.6214 110.142 54.5553 110.208 54.4231C110.01 53.4312 109.811 52.4392 109.612 51.4473C109.016 48.67 108.485 45.562 109.612 43.0491C110.805 40.404 113.323 39.0815 115.51 37.4944C121.276 33.13 124.655 25.7237 129.56 20.169C131.813 17.59 134.397 15.3416 137.247 13.6223C139.169 12.432 141.289 11.5062 143.41 11.7046C144.47 11.8369 145.398 12.2336 146.26 12.8949C149.573 11.4401 153.218 10.4482 156.068 8.13373C157.923 6.61279 159.448 4.56283 161.369 3.17415C163.291 1.78547 166.008 1.32258 167.731 3.10803C167.599 3.43866 167.4 3.7693 167.201 4.16607C167.268 4.09994 167.4 4.09994 167.466 4.03381C168.725 3.50479 169.918 2.84351 171.178 2.44675C173.696 1.52096 176.214 0.661303 178.799 -0.0661011L178.931 0.396792Z" fill="#EBE3CC"/>
<g clip-path="url(#clip1_1_798)">
<path d="M183.552 -5.75018C183.154 -5.5518 182.757 -5.28729 182.359 -4.95665C180.768 -3.76635 179.642 -1.98091 178.316 -0.393844C175.997 2.5819 173.28 5.16088 170.298 7.21083C170.099 8.7979 168.773 10.0543 167.382 10.0543C167.315 11.2446 167.183 12.3688 167.117 13.5591C163.406 18.0558 160.49 23.4782 158.7 29.2975C157.971 29.3636 157.176 29.4958 156.447 29.6281C155.055 32.6038 153.73 35.5135 152.338 38.4892C151.543 38.6876 150.88 39.3489 150.218 40.0101C148.892 41.3988 147.567 42.7875 146.838 44.6391C145.91 47.0197 146.175 49.8632 145.247 52.2438C144.717 53.5002 143.922 54.5582 143.524 55.8146C143.193 56.8727 143.259 58.1291 143.856 58.9888C143.723 59.3194 143.524 59.5839 143.392 59.9146C141.47 60.9065 139.813 62.5597 138.753 64.7419C138.223 65.0064 137.626 65.2709 137.096 65.4693C136.036 66.9902 134.975 68.5112 133.915 70.0321C132.921 70.0982 131.927 70.2305 130.933 70.2966C129.74 71.6853 128.613 73.074 127.421 74.5288C128.812 74.8594 130.138 75.2562 131.529 75.6529C131.662 76.4465 131.397 77.3061 130.867 77.9013C130.933 79.819 130.999 81.7367 131.065 83.6544C130.602 84.5802 130.071 85.5721 129.607 86.4979L128.746 88.2172C128.547 88.6801 128.282 89.143 128.083 89.5397C128.083 89.6059 128.017 89.672 128.017 89.672C126.36 89.143 124.703 89.0769 123.047 89.4075C123.577 91.1268 124.173 92.78 124.703 94.4993C123.179 97.0783 121.655 99.7234 120.131 102.302C120.86 103.427 119.998 105.08 118.872 105.477C117.745 105.873 116.552 105.344 115.426 104.881C115.956 107.196 115.426 109.775 114.1 111.56C114.895 111.957 114.962 113.28 114.564 114.139C114.166 114.999 113.371 115.528 112.775 116.123C110.919 117.975 109.925 120.686 108.931 123.265C108.335 124.918 107.738 126.571 107.142 128.224C105.684 132.258 102.37 133.382 100.647 137.284C100.448 137.747 100.979 139.4 101.244 140.656C100.912 141.318 100.515 141.913 100.183 142.574C100.051 142.64 99.9845 142.64 99.8519 142.706C98.4602 143.235 96.936 146.013 96.8697 146.013C96.8697 146.013 96.5384 147.071 96.4721 147.997L96.207 147.93C96.207 147.005 96.2733 146.079 96.3396 145.153C96.3396 144.822 96.4058 144.492 96.4058 144.161C96.5384 142.177 96.7372 140.127 97.0023 138.144C97.0686 137.747 97.0686 137.35 97.1348 137.019C97.2011 136.623 97.2674 136.226 97.2674 135.895C97.5324 133.911 97.8638 131.928 98.1289 129.944C98.2614 129.282 98.3277 128.687 98.4602 128.092C98.659 126.77 98.9241 125.381 99.1892 124.058C99.3218 123.199 99.5206 122.339 99.7194 121.479C99.8519 120.686 100.051 119.892 100.25 119.099C100.25 119.033 100.25 118.967 100.316 118.9C100.846 116.321 101.509 113.742 102.105 111.163C102.171 111.031 102.171 110.833 102.238 110.634C102.37 109.973 102.569 109.378 102.768 108.717C102.9 108.254 103.033 107.791 103.099 107.328C103.298 106.535 103.563 105.741 103.762 104.947C104.16 103.559 104.557 102.236 104.955 100.848C105.352 99.525 105.75 98.2025 106.214 96.8138C106.479 95.9541 106.744 95.1606 107.009 94.3009C107.274 93.4413 107.539 92.6477 107.871 91.7881C111.913 79.8851 116.817 68.2466 122.583 57.2033C123.444 55.5501 124.306 53.8969 125.167 52.3099C125.234 52.1776 125.3 52.0454 125.366 51.9792C125.697 51.318 126.095 50.6567 126.426 50.0615L127.089 48.9374C129.409 44.9036 131.861 41.0021 134.379 37.1667C135.506 35.4473 136.698 33.7941 137.891 32.141C138.156 31.7442 138.488 31.3474 138.753 30.9507C139.548 29.8926 140.343 28.8346 141.139 27.7765C143.524 24.7347 145.976 21.7589 148.561 18.9816C151.079 16.1381 153.863 13.493 156.646 10.914C158.038 9.65756 159.496 8.46726 160.954 7.21083C161.682 6.61568 162.411 6.02054 163.14 5.49152L165.394 3.83832C166.189 3.3093 166.918 2.71416 167.713 2.25126C168.508 1.78837 169.304 1.25935 170.099 0.796453C171.689 -0.129334 173.214 -1.12125 174.937 -1.91478C175.666 -2.31155 176.461 -2.64218 177.19 -3.03895C177.256 -3.03895 177.322 -3.10508 177.389 -3.10508C178.184 -3.50184 179.045 -3.89861 179.907 -4.16312C181.034 -4.89052 182.293 -5.35342 183.552 -5.75018Z" fill="#189CAB"/>
<path d="M183.552 -5.75018C183.154 -5.5518 182.757 -5.28729 182.359 -4.95665C180.768 -3.76635 179.642 -1.98091 178.316 -0.393844C175.997 2.5819 173.28 5.16088 170.298 7.21083C170.099 8.7979 168.773 10.0543 167.382 10.0543C167.315 11.2446 167.183 12.3688 167.117 13.5591C163.406 18.0558 160.49 23.4782 158.7 29.2975C157.971 29.3636 157.176 29.4958 156.447 29.6281C155.055 32.6038 153.73 35.5135 152.338 38.4892C151.543 38.6876 150.88 39.3489 150.218 40.0101C148.892 41.3988 147.567 42.7875 146.838 44.6391C145.91 47.0197 146.175 49.8632 145.247 52.2438C144.717 53.5002 143.922 54.5582 143.524 55.8146C143.193 56.8727 143.259 58.1291 143.856 58.9888C143.723 59.3194 143.524 59.5839 143.392 59.9146C141.47 60.9065 139.813 62.5597 138.753 64.7419C138.223 65.0064 137.626 65.2709 137.096 65.4693C136.036 66.9902 134.975 68.5112 133.915 70.0321C132.921 70.0982 131.927 70.2305 130.933 70.2966C129.74 71.6853 128.613 73.074 127.421 74.5288C128.812 74.8594 130.138 75.2562 131.529 75.6529C131.662 76.4465 131.397 77.3061 130.867 77.9013C130.933 79.819 130.999 81.7367 131.065 83.6544C130.602 84.5802 130.071 85.5721 129.607 86.4979L128.746 88.2172C128.547 88.6801 128.282 89.143 128.083 89.5397C128.083 89.6059 128.017 89.672 128.017 89.672C126.36 89.143 124.703 89.0769 123.047 89.4075C123.577 91.1268 124.173 92.78 124.703 94.4993C123.179 97.0783 121.655 99.7234 120.131 102.302C120.86 103.427 119.998 105.08 118.872 105.477C117.745 105.873 116.552 105.344 115.426 104.881C115.956 107.196 115.426 109.775 114.1 111.56C114.895 111.957 114.962 113.28 114.564 114.139C114.166 114.999 113.371 115.528 112.775 116.123C110.919 117.975 109.925 120.686 108.931 123.265C108.335 124.918 107.738 126.571 107.142 128.224C105.684 132.258 102.37 133.382 100.647 137.284C100.448 137.747 100.979 139.4 101.244 140.656C100.912 141.318 100.515 141.913 100.183 142.574C100.051 142.64 99.9845 142.64 99.8519 142.706C98.4602 143.235 96.936 146.013 96.8697 146.013C96.8697 146.013 96.5384 147.071 96.4721 147.997L96.207 147.93C96.207 147.005 96.2733 146.079 96.3396 145.153C96.3396 144.822 96.4058 144.492 96.4058 144.161C96.5384 142.177 96.7372 140.127 97.0023 138.144C97.0686 137.747 97.0686 137.35 97.1348 137.019C97.0686 136.027 97.0023 135.036 96.8035 134.044C96.6047 133.184 96.4058 132.324 96.5384 131.399C96.7372 130.076 97.665 129.084 98.4602 128.026C98.7253 126.703 98.9241 125.315 99.1892 123.992C99.3218 123.133 99.5206 122.273 99.7194 121.413C99.8519 120.62 100.051 119.826 100.25 119.033C100.25 118.967 100.25 118.9 100.316 118.834C100.051 117.446 99.4543 116.189 98.7253 115.065C99.6531 113.544 100.846 112.155 102.171 111.097C102.238 110.965 102.238 110.767 102.304 110.568C102.436 109.907 102.635 109.312 102.834 108.651C102.967 108.188 103.099 107.725 103.165 107.262C103.364 106.468 103.629 105.675 103.828 104.881C103.165 101.972 104.16 98.5992 106.214 96.8138C106.479 95.9541 106.744 95.1606 107.009 94.3009C107.274 93.4413 107.539 92.6477 107.871 91.7881C107.738 91.2591 107.738 90.6639 107.738 90.1349C108.003 86.8946 108.997 83.7866 110.654 81.1415C111.383 79.9512 112.311 78.8932 112.841 77.5706C114.1 74.661 113.702 70.9579 115.492 68.445C116.221 67.4531 117.215 66.7257 117.679 65.6015C118.607 63.5516 117.878 60.5758 119.468 59.2533C119.932 58.8565 120.528 58.7243 120.926 58.1952C121.589 57.2033 120.86 55.6824 121.191 54.4921C121.655 52.8389 123.643 52.7728 125.167 52.3099C125.234 52.1776 125.3 52.0454 125.366 51.9792C125.697 51.318 126.095 50.6567 126.426 50.0615L127.089 48.9374V48.8712C127.222 46.6229 128.878 44.9036 130.138 43.2504C131.397 41.5311 132.391 38.9521 131.264 37.1005C132.059 37.5634 132.987 36.5715 133.385 35.5796C133.783 34.5877 134.048 33.3974 134.843 32.9345C135.506 32.5377 136.235 32.7361 136.964 32.6038C137.361 32.5377 137.692 32.3393 137.958 32.141C138.223 31.7442 138.554 31.3474 138.819 30.9507C139.416 29.6942 139.416 28.041 138.488 27.0491C140.41 26.5201 141.801 24.1395 141.47 21.8912C142.795 23.0153 144.518 21.3622 145.446 19.8412C147.567 16.601 149.687 13.4268 151.808 10.1866C152.272 9.5253 152.736 8.7979 153.399 8.46726C154.658 7.80598 156.248 8.59951 157.441 7.80598C158.038 7.40922 158.369 6.68181 158.767 6.02054C161.285 2.25126 166.255 2.31739 169.635 -0.393844C170.894 -1.38576 171.888 -2.84057 173.214 -3.70023C174.539 -4.62601 176.328 -4.95665 177.521 -3.76635C177.389 -3.50184 177.322 -3.30346 177.19 -3.10508C177.256 -3.10508 177.322 -3.17121 177.389 -3.17121C178.184 -3.56797 179.045 -3.96474 179.907 -4.22925C181.034 -4.89052 182.293 -5.35342 183.552 -5.75018Z" fill="#189CAB"/>
<path d="M271.691 36.7699C271.294 36.9683 270.896 37.2328 270.499 37.5634C268.908 38.7537 267.781 40.5392 266.522 42.1262C264.203 45.102 261.486 47.681 258.504 49.7309C258.305 51.318 256.979 52.5744 255.588 52.5744C255.455 53.7647 255.389 54.8889 255.323 56.0792C251.611 60.5758 248.696 65.9983 246.906 71.8175C246.177 71.8837 245.382 72.0159 244.653 72.0821C243.261 75.0578 241.936 77.9674 240.544 80.9432C239.749 81.1415 239.086 81.8028 238.424 82.4641C237.098 83.8528 235.773 85.2415 235.044 87.1592C234.116 89.5397 234.381 92.3832 233.453 94.7638C232.923 96.0203 232.128 97.0783 231.73 98.3347C231.399 99.3928 231.465 100.649 231.995 101.509C231.863 101.839 231.664 102.104 231.531 102.435C229.61 103.36 227.953 105.08 226.892 107.262C226.362 107.526 225.766 107.725 225.236 107.989C224.175 109.51 223.115 111.031 222.055 112.552C221.061 112.618 220.067 112.751 219.073 112.817C217.88 114.205 216.753 115.594 215.56 117.049C216.952 117.379 218.277 117.776 219.669 118.107C219.802 118.9 219.536 119.76 219.006 120.355C219.073 122.273 219.139 124.191 219.205 126.108C218.741 127.1 218.211 128.026 217.747 129.018C217.018 129.878 216.422 130.936 216.223 132.06C216.223 132.126 216.157 132.192 216.157 132.258C214.5 131.729 212.843 131.663 211.186 131.994C211.716 133.713 212.313 135.366 212.843 137.086C211.319 139.664 209.795 142.31 208.27 144.889C208.999 146.013 208.138 147.666 207.011 148.063C205.885 148.459 204.626 147.997 203.565 147.468C204.095 149.782 203.565 152.361 202.24 154.146C203.035 154.543 203.101 155.866 202.704 156.725C202.306 157.585 201.511 158.114 200.914 158.709C199.059 160.561 198.065 163.272 197.071 165.851C196.474 167.504 195.878 169.157 195.281 170.811C193.823 174.844 190.51 175.969 188.787 179.87C188.588 180.333 189.118 181.986 189.383 183.243C189.052 183.904 188.654 184.499 188.257 185.16C188.19 185.226 188.058 185.226 187.925 185.293C186.534 185.822 185.009 188.599 184.943 188.599C184.943 188.599 184.612 189.657 184.545 190.583L184.28 190.517C184.28 189.591 184.347 188.665 184.413 187.739C184.413 187.409 184.479 187.012 184.479 186.681C184.479 186.549 184.479 186.417 184.479 186.218C184.479 185.888 184.545 185.557 184.545 185.16C184.678 183.639 184.811 182.185 185.009 180.664C185.076 180.267 185.076 179.87 185.142 179.539C185.208 179.143 185.208 178.746 185.274 178.415C185.54 176.431 185.871 174.448 186.136 172.464C186.269 171.803 186.335 171.207 186.467 170.612C186.732 169.29 186.931 167.901 187.196 166.578C187.395 165.719 187.528 164.859 187.726 163.999C187.859 163.206 188.058 162.412 188.257 161.619C188.257 161.553 188.257 161.487 188.323 161.42C188.853 158.841 189.516 156.263 190.112 153.684C190.178 153.485 190.178 153.353 190.245 153.155C190.377 152.493 190.576 151.832 190.775 151.171C190.907 150.642 191.04 150.113 191.173 149.584C191.239 149.319 191.305 148.988 191.438 148.724C191.902 146.939 192.432 145.219 192.962 143.434C193.558 141.516 194.088 139.664 194.751 137.813C195.083 136.887 195.348 135.961 195.679 135.036C199.788 122.868 204.692 111.097 210.59 99.8557C211.451 98.1363 212.379 96.417 213.373 94.6977C213.837 93.9042 214.301 93.0445 214.699 92.251C214.765 92.1849 214.765 92.1187 214.831 92.0526C214.897 91.8542 215.03 91.722 215.096 91.5236C217.416 87.4898 219.868 83.5883 222.386 79.7529C223.513 78.0335 224.706 76.3803 225.898 74.7272C226.163 74.3304 226.495 73.9336 226.76 73.5369C227.555 72.4788 228.35 71.4208 229.146 70.3627C231.531 67.3209 233.917 64.3451 236.568 61.5678C239.086 58.7243 241.87 56.0792 244.653 53.5002C246.111 52.2438 247.503 51.0535 248.961 49.797C249.69 49.2019 250.419 48.6067 251.214 48.0777L253.467 46.4245C254.262 45.8955 254.991 45.3004 255.786 44.8375C256.582 44.3746 257.377 43.8456 258.172 43.3827C259.763 42.4569 261.287 41.465 263.01 40.6714C263.739 40.2747 264.534 39.944 265.263 39.5473C265.329 39.5473 265.396 39.4811 265.462 39.4811C266.257 39.0844 267.119 38.6876 267.98 38.4231C269.173 37.5634 270.432 37.1667 271.691 36.7699Z" fill="#189CAB"/>
<path d="M271.691 36.7699C271.294 36.9683 270.896 37.2328 270.499 37.5634C268.908 38.7537 267.781 40.5392 266.522 42.1262C264.203 45.102 261.486 47.681 258.504 49.7309C258.305 51.318 256.979 52.5744 255.588 52.5744C255.455 53.7647 255.389 54.8889 255.323 56.0792C251.611 60.5758 248.696 65.9983 246.906 71.8175C246.177 71.8837 245.382 72.0159 244.653 72.0821C243.261 75.0578 241.936 77.9674 240.544 80.9432C239.749 81.1415 239.086 81.8028 238.424 82.4641C237.098 83.8528 235.773 85.2415 235.044 87.1592C234.116 89.5397 234.381 92.3832 233.453 94.7638C232.923 96.0203 232.128 97.0783 231.73 98.3347C231.399 99.3928 231.465 100.649 231.995 101.509C231.863 101.839 231.664 102.104 231.531 102.435C229.61 103.36 227.953 105.08 226.892 107.262C226.362 107.526 225.766 107.725 225.236 107.989C224.175 109.51 223.115 111.031 222.055 112.552C221.061 112.618 220.067 112.751 219.073 112.817C217.88 114.205 216.753 115.594 215.56 117.049C216.952 117.379 218.277 117.776 219.669 118.107C219.802 118.9 219.536 119.76 219.006 120.355C219.073 122.273 219.139 124.191 219.205 126.108C218.741 127.1 218.211 128.026 217.747 129.018C217.018 129.878 216.422 130.936 216.223 132.06C216.223 132.126 216.157 132.192 216.157 132.258C214.5 131.729 212.843 131.663 211.186 131.994C211.716 133.713 212.313 135.366 212.843 137.086C211.319 139.664 209.795 142.31 208.27 144.889C208.999 146.013 208.138 147.666 207.011 148.063C205.885 148.459 204.626 147.997 203.565 147.468C204.095 149.782 203.565 152.361 202.24 154.146C203.035 154.543 203.101 155.866 202.704 156.725C202.306 157.585 201.511 158.114 200.914 158.709C199.059 160.561 198.065 163.272 197.071 165.851C196.474 167.504 195.878 169.157 195.281 170.811C193.823 174.844 190.51 175.969 188.787 179.87C188.588 180.333 189.118 181.986 189.383 183.243C189.052 183.904 188.654 184.499 188.257 185.16C188.19 185.226 188.058 185.226 187.925 185.293C186.534 185.822 185.009 188.599 184.943 188.599C184.943 188.599 184.612 189.657 184.545 190.583L184.28 190.517C184.28 189.591 184.347 188.665 184.413 187.739C184.413 187.409 184.479 187.012 184.479 186.681C184.479 186.549 184.479 186.417 184.479 186.218C184.479 185.888 184.545 185.557 184.545 185.16C184.678 183.639 184.811 182.185 185.009 180.664C185.076 180.267 185.076 179.87 185.142 179.539C185.076 178.548 185.009 177.556 184.811 176.564C184.612 175.704 184.413 174.778 184.545 173.919C184.744 172.53 185.738 171.604 186.467 170.546C186.732 169.224 186.931 167.835 187.196 166.512C187.395 165.653 187.528 164.793 187.726 163.933C187.859 163.14 188.058 162.346 188.257 161.553C188.257 161.487 188.257 161.42 188.323 161.354C187.992 159.966 187.461 158.643 186.732 157.585C187.66 156.064 188.853 154.675 190.178 153.617C190.245 153.419 190.245 153.287 190.311 153.088C190.444 152.427 190.642 151.766 190.841 151.105C190.974 150.576 191.106 150.047 191.239 149.518C191.305 149.253 191.371 148.922 191.504 148.658C191.636 148.261 191.703 147.864 191.835 147.468C191.173 144.558 192.167 141.185 194.221 139.4C194.42 138.871 194.552 138.276 194.751 137.747C195.083 136.821 195.348 135.895 195.679 134.969C195.745 134.771 195.811 134.573 195.878 134.374C195.745 133.845 195.745 133.25 195.745 132.721C196.01 129.481 197.004 126.373 198.661 123.728C199.39 122.537 200.318 121.479 200.848 120.157C202.107 117.247 201.71 113.544 203.433 111.031C204.162 110.039 205.156 109.312 205.62 108.188C206.547 106.204 205.818 103.162 207.409 101.839C207.873 101.443 208.469 101.31 208.867 100.781C209.53 99.7895 208.801 98.2686 209.132 97.0783C209.596 95.4251 211.584 95.359 213.108 94.8961C213.174 94.83 213.174 94.7638 213.241 94.6316C213.705 93.838 214.168 92.9784 214.566 92.1849C214.632 92.1187 214.632 92.0526 214.699 91.9865C214.765 91.7881 214.897 91.6558 214.964 91.4574V91.3913C215.096 89.143 216.753 87.4898 218.012 85.7705C219.271 84.0512 220.332 81.4722 219.139 79.6867C219.934 80.1496 220.862 79.1577 221.259 78.1658C221.657 77.1739 221.922 75.9836 222.717 75.5207C223.38 75.1239 224.109 75.3223 224.838 75.19C225.236 75.1239 225.567 74.9255 225.898 74.7272C226.163 74.3304 226.495 73.9336 226.76 73.5369C227.356 72.2804 227.356 70.6272 226.429 69.6353C228.35 69.1063 229.742 66.7257 229.411 64.4774C230.736 65.6015 232.459 63.9484 233.453 62.4274C235.574 59.1872 237.695 56.013 239.815 52.7728C240.279 52.1115 240.743 51.3841 241.406 51.0535C242.665 50.3922 244.255 51.1857 245.448 50.3922C246.045 49.9954 246.376 49.268 246.774 48.6067C249.292 44.8375 254.262 44.9036 257.642 42.1262C258.901 41.1343 259.895 39.7456 261.221 38.8199C262.546 37.8941 264.335 37.5634 265.528 38.7537C265.396 38.9521 265.329 39.2166 265.197 39.415C265.263 39.415 265.329 39.3489 265.396 39.3489C266.191 38.9521 267.053 38.5553 267.914 38.2908C269.173 37.5634 270.432 37.1667 271.691 36.7699Z" fill="#189CAB"/>
<path d="M131.198 7.01245C130.932 7.14471 130.667 7.34309 130.402 7.54147C129.408 8.335 128.613 9.45917 127.818 10.4511C126.294 12.3688 124.57 14.022 122.649 15.3445C122.516 16.3364 121.655 17.1961 120.793 17.1961C120.727 17.9235 120.661 18.6509 120.594 19.4444C118.209 22.3541 116.353 25.7927 115.16 29.562C114.696 29.6281 114.166 29.6942 113.702 29.7604C112.841 31.6781 111.913 33.5296 111.051 35.4473C110.521 35.5796 110.123 35.9764 109.726 36.4393C108.864 37.2989 108.003 38.2247 107.539 39.415C106.942 40.9359 107.141 42.7875 106.545 44.3084C106.214 45.102 105.683 45.7632 105.418 46.6229C105.219 47.2842 105.219 48.1438 105.617 48.6729C105.485 48.8713 105.418 49.0696 105.286 49.268C104.027 49.8632 102.966 50.9873 102.304 52.376C101.972 52.5083 101.575 52.7067 101.243 52.8389C100.58 53.8308 99.8515 54.8227 99.1888 55.7485C98.5261 55.8146 97.9297 55.8808 97.267 55.9469C96.538 56.8727 95.7427 57.7324 95.0138 58.6581C95.8753 58.9227 96.8031 59.121 97.6646 59.3855C97.7309 59.9146 97.5983 60.4436 97.267 60.8403L97.3995 64.5435C97.0681 65.1386 96.7368 65.7338 96.4717 66.3951C96.0078 66.9241 95.6102 67.5854 95.4776 68.3789C95.4776 68.3789 95.4776 68.445 95.4114 68.5112C94.351 68.1805 93.2907 68.1144 92.2304 68.3128C92.5617 69.4369 92.9594 70.495 93.2907 71.553C92.2967 73.2062 91.3026 74.9255 90.3748 76.5787C90.8387 77.3061 90.3085 78.3642 89.5796 78.6287C88.8506 78.8932 88.0553 78.5626 87.3264 78.2319C87.6577 79.6867 87.3264 81.3399 86.4648 82.5302C86.995 82.7947 86.995 83.6544 86.7299 84.1834C86.4648 84.7124 86.0009 85.0431 85.537 85.506C84.3442 86.6963 83.6815 88.4156 83.085 90.0688C82.6874 91.1268 82.2898 92.1848 81.9584 93.2429C81.0306 95.8219 78.91 96.5493 77.7834 99.0621C77.6508 99.3266 77.9822 100.385 78.181 101.178C77.9159 101.575 77.7171 101.972 77.452 102.435C77.3857 102.435 77.3195 102.501 77.2532 102.501C76.3917 102.831 75.3976 104.617 75.3314 104.617C75.3314 104.617 75.1325 105.278 75.0663 105.939L75 105.807C75 105.146 75.0663 104.485 75.0663 103.823C75.0663 103.493 75.1325 103.162 75.1325 102.831C75.1325 102.501 75.1988 102.104 75.1988 101.773C75.1988 101.443 75.2651 101.178 75.2651 100.848C75.2651 100.649 75.3314 100.451 75.3314 100.252C75.3314 99.9879 75.3976 99.7895 75.3976 99.525C75.3976 99.2605 75.4639 98.9299 75.5302 98.6654C75.5302 98.4008 75.5964 98.1363 75.5964 97.938C75.729 96.6154 75.9278 95.359 76.1929 94.1026C76.2591 93.7058 76.3254 93.309 76.3917 92.9123C76.5242 92.0526 76.723 91.1929 76.8556 90.3333C77.0544 89.2091 77.3195 88.0849 77.5183 87.0269C77.8496 85.3737 78.2473 83.7205 78.7112 82.0673C78.8437 81.406 79.0425 80.7448 79.2413 80.0835C79.4401 79.4222 79.5727 78.7609 79.7715 78.0997C80.0366 77.24 80.3017 76.3803 80.5005 75.4546C80.7656 74.5949 81.0306 73.7352 81.2957 72.8756C81.6271 71.8175 81.9584 70.6934 82.356 69.6353C84.9406 61.9645 88.1216 54.5582 91.7665 47.4164C92.2967 46.3584 92.8931 45.3004 93.4233 44.2423C93.4895 44.1762 93.5558 44.0439 93.5558 43.9778C93.8209 43.5149 94.0197 43.1181 94.2848 42.6552C94.4173 42.4569 94.4836 42.2585 94.6161 42.0601C96.0741 39.4811 97.6646 36.9683 99.3214 34.5216C100.05 33.3974 100.779 32.3393 101.575 31.2813C101.773 31.0168 101.972 30.7523 102.105 30.4878C102.635 29.8265 103.099 29.0991 103.629 28.4378C105.153 26.5201 106.744 24.6024 108.4 22.7508C110.057 20.8993 111.78 19.2461 113.57 17.5267C114.497 16.7332 115.425 15.9397 116.353 15.1462C116.817 14.7494 117.281 14.4187 117.811 14.022L119.269 12.9639C119.799 12.6333 120.263 12.2365 120.727 11.9059C121.257 11.5753 121.721 11.2446 122.251 10.9801C123.245 10.385 124.239 9.72369 125.366 9.26079C125.83 8.99628 126.36 8.7979 126.824 8.53339C126.89 8.53339 126.89 8.46726 126.956 8.46726C127.486 8.20275 128.017 7.93824 128.547 7.80598C129.541 7.6076 130.402 7.27696 131.198 7.01245Z" fill="#189CAB"/>
<path d="M131.198 7.01245C130.932 7.14471 130.667 7.34309 130.402 7.54147C129.408 8.335 128.613 9.45917 127.818 10.4511C126.294 12.3688 124.57 14.022 122.649 15.3445C122.516 16.3364 121.655 17.1961 120.793 17.1961C120.727 17.9235 120.661 18.6509 120.594 19.4444C118.209 22.3541 116.353 25.7927 115.16 29.562C114.696 29.6281 114.166 29.6942 113.702 29.7604C112.841 31.6781 111.913 33.5296 111.051 35.4473C110.521 35.5796 110.123 35.9764 109.726 36.4393C108.864 37.2989 108.003 38.2247 107.539 39.415C106.942 40.9359 107.141 42.7875 106.545 44.3084C106.214 45.102 105.683 45.7632 105.418 46.6229C105.219 47.2842 105.219 48.1438 105.617 48.6729C105.485 48.8713 105.418 49.0696 105.286 49.268C104.027 49.8632 102.966 50.9873 102.304 52.376C101.972 52.5083 101.575 52.7067 101.243 52.8389C100.58 53.8308 99.8515 54.8227 99.1888 55.7485C98.5261 55.8146 97.9297 55.8808 97.267 55.9469C96.538 56.8727 95.7427 57.7324 95.0138 58.6581C95.8753 58.9227 96.8031 59.121 97.6646 59.3855C97.7309 59.9146 97.5983 60.4436 97.267 60.8403L97.3995 64.5435C97.0681 65.1386 96.7368 65.7338 96.4717 66.3951C96.0078 66.9241 95.6102 67.5854 95.4776 68.3789C95.4776 68.3789 95.4776 68.445 95.4114 68.5112C94.351 68.1805 93.2907 68.1144 92.2304 68.3128C92.5617 69.4369 92.9594 70.495 93.2907 71.553C92.2967 73.2062 91.3026 74.9255 90.3748 76.5787C90.8387 77.3061 90.3085 78.3642 89.5796 78.6287C88.8506 78.8932 88.0553 78.5626 87.3264 78.2319C87.6577 79.6867 87.3264 81.3399 86.4648 82.5302C86.995 82.7947 86.995 83.6544 86.7299 84.1834C86.4648 84.7124 86.0009 85.0431 85.537 85.506C84.3442 86.6963 83.6815 88.4156 83.085 90.0688C82.6874 91.1268 82.2898 92.1848 81.9584 93.2429C81.0306 95.8219 78.91 96.5493 77.7834 99.0621C77.6508 99.3266 77.9822 100.385 78.181 101.178C77.9159 101.575 77.7171 101.972 77.452 102.435C77.3857 102.435 77.3195 102.501 77.2532 102.501C76.3917 102.831 75.3976 104.617 75.3314 104.617C75.3314 104.617 75.1325 105.278 75.0663 105.939L75 105.807C75 105.146 75.0663 104.485 75.0663 103.823C75.0663 103.493 75.1325 103.162 75.1325 102.831C75.1325 102.501 75.1988 102.104 75.1988 101.773C75.1988 101.443 75.2651 101.178 75.2651 100.848C75.2651 100.649 75.3314 100.451 75.3314 100.252C75.3314 99.9879 75.3976 99.7895 75.3976 99.525C75.3976 99.2605 75.4639 98.9299 75.5302 98.6654C75.4639 98.0041 75.3976 97.3428 75.3314 96.7477C75.1988 96.2186 75.0663 95.6235 75.1988 95.0945C75.3314 94.2348 75.9278 93.5735 76.458 92.9123C76.5905 92.0526 76.7893 91.1929 76.9219 90.3333C77.1207 89.2091 77.3857 88.0849 77.5846 87.0269C77.3857 86.1672 77.0544 85.3076 76.5242 84.5802C77.1207 83.5883 77.8496 82.7286 78.7112 82.0673C78.8437 81.406 79.0425 80.7448 79.2413 80.0835C79.4401 79.4222 79.5727 78.7609 79.7715 78.0997C79.3739 76.2481 79.9703 74.0659 81.2957 72.8756C81.6271 71.8175 81.9584 70.6934 82.356 69.6353C82.2235 69.3047 82.2898 68.9079 82.2898 68.5773C82.4223 66.5273 83.085 64.4774 84.1454 62.8242C84.6093 62.0306 85.2057 61.3694 85.537 60.5097C86.3323 58.6581 86.0672 56.2775 87.1938 54.6244C87.6577 53.9631 88.3204 53.5002 88.6518 52.7728C89.2482 51.4502 88.7843 49.5325 89.8446 48.6729C90.176 48.4084 90.5073 48.3422 90.7724 48.0116C91.2363 47.3503 90.7062 46.3584 90.905 45.631C91.2363 44.5729 92.4955 44.5729 93.4233 44.2423C93.4895 44.1762 93.5558 44.0439 93.5558 43.9778C93.8209 43.5149 94.0197 43.1181 94.2848 42.6552C94.4173 42.4569 94.4836 42.2585 94.6161 42.0601C94.6161 42.0601 94.6161 42.0601 94.6161 41.994C94.6824 40.5392 95.7427 39.4811 96.538 38.357C97.3332 37.2328 97.9959 35.5796 97.267 34.3893C97.7971 34.7199 98.3936 34.0587 98.5924 33.3974C98.7912 32.7361 98.99 32.0087 99.5202 31.6781C99.9178 31.4135 100.382 31.5458 100.846 31.4797C101.111 31.4136 101.309 31.3474 101.508 31.149C101.707 30.8845 101.906 30.62 102.038 30.3555C102.436 29.562 102.436 28.5039 101.84 27.8427C103.099 27.512 103.96 25.9911 103.761 24.5363C104.623 25.2637 105.683 24.2056 106.346 23.2137C107.738 21.1638 109.063 19.0477 110.455 16.9977C110.72 16.5348 111.051 16.1381 111.449 15.8736C112.244 15.4768 113.304 15.9397 114.033 15.4768C114.431 15.2123 114.63 14.7494 114.895 14.3526C116.552 11.9059 119.733 11.972 121.853 10.1866C122.649 9.5253 123.311 8.66564 124.173 8.07049C125.034 7.47535 126.161 7.27696 126.89 8.00437C126.824 8.13662 126.757 8.335 126.691 8.46726C126.757 8.46726 126.757 8.40113 126.824 8.40113C127.354 8.13662 127.884 7.87211 128.414 7.73986C129.541 7.6076 130.402 7.27696 131.198 7.01245Z" fill="#189CAB"/>
<path d="M253.931 -15.6032C250.087 -14.0823 246.774 -10.7759 243.858 -7.33725C233.984 4.30121 226.628 18.5848 216.223 29.6281C215.295 35.9763 211.584 41.7956 206.614 44.5729C204.096 45.6971 201.312 45.8955 198.661 45.102C199.788 46.6229 200.848 48.21 201.975 49.7309C199.921 50.326 199.854 53.6324 199.854 56.0791C199.788 65.2048 193.824 72.6111 188.986 79.819C183.817 87.4898 179.575 95.888 175.334 104.286C174.274 106.402 173.213 108.452 172.153 110.568C169.37 116.123 165.592 122.339 160.026 122.604C158.634 122.67 157.176 122.339 155.917 122.934C154.658 123.529 153.796 125.645 154.79 126.77C158.037 125.579 160.887 129.811 161.749 133.647C162.61 137.086 161.815 142.243 158.7 142.243C158.568 143.698 158.435 145.153 158.303 146.542C154.26 150.509 150.218 154.543 146.175 158.511C146.97 161.288 146.838 164.396 145.844 167.107C144.054 169.091 140.873 169.025 139.15 166.909C139.084 169.224 139.084 171.472 139.018 173.786C138.024 173.919 137.162 174.448 136.433 175.175C137.162 176.233 137.957 177.291 138.686 178.349C136.632 182.846 134.511 187.409 132.457 191.905C130.866 195.344 129.276 198.783 127.354 201.957C126.36 203.544 124.836 204.8 123.179 203.941C123.179 206.387 123.179 209.032 123.842 211.215C123.51 211.81 123.113 212.339 122.781 212.934L121.92 212.603C122.052 207.115 122.583 201.692 123.245 196.336C123.179 194.815 123.047 193.294 122.715 191.839C122.45 190.583 122.119 189.26 122.318 187.938C122.583 186.02 123.908 184.631 125.035 183.11C124.173 182.581 123.179 182.251 122.251 182.185C124.306 178.217 125.697 173.786 126.294 169.157C126.426 168.099 126.493 167.041 126.89 166.049C126.493 165.19 126.029 164.33 125.499 163.537C126.824 161.354 128.414 159.437 130.27 157.916C130.403 155.535 129.806 153.155 128.481 151.303C129.475 151.038 130.469 150.708 131.463 150.443C131.595 149.187 132.126 148.063 132.722 147.005C132.391 143.566 133.517 139.863 135.638 137.416C135.77 134.837 135.373 132.192 134.511 129.811C137.228 129.745 138.62 125.778 138.355 122.67C138.09 119.496 136.897 116.388 137.494 113.28C139.482 113.742 141.735 112.288 142.464 110.105C142.795 109.047 142.861 107.791 143.127 106.667C143.856 103.757 145.976 101.839 148.229 99.9879C148.627 97.9379 149.157 96.0202 150.284 94.3671C151.344 92.9122 152.802 91.7881 153.597 90.1349C154.989 87.1591 153.862 82.6625 156.314 80.7448C156.58 80.5464 156.845 80.348 157.176 80.2157C157.242 80.1496 157.308 80.0174 157.308 79.9512C157.706 79.0916 157.772 78.0335 157.971 77.0416C158.104 76.3142 158.369 75.5868 158.7 74.9917C158.7 74.5288 158.7 74.0659 158.833 73.6691C159.495 71.2224 162.411 71.1562 164.665 70.4288C163.405 68.5111 162.279 66.3289 162.411 64.0145C162.61 61.4355 165.46 59.2533 167.117 60.9726C170.298 58.7243 172.153 54.2937 171.755 49.9954C172.683 50.1277 173.611 49.797 174.34 49.268C174.208 48.739 174.009 48.2761 173.744 47.8132C174.87 48.4745 176.063 47.2842 176.726 45.9616C177.123 44.6391 177.19 43.1843 176.66 41.9278C177.389 42.0601 178.117 42.0601 178.846 41.8617C178.913 41.7956 178.979 41.7294 179.112 41.6633C179.377 41.4649 179.708 41.3988 180.039 41.3327C181.1 40.7375 181.961 39.8117 182.491 38.5553C183.287 38.6876 184.082 38.7537 184.943 38.886C185.01 38.8198 185.01 38.7537 185.076 38.6876C185.142 38.6214 185.142 38.5553 185.208 38.4231C185.01 37.4312 184.811 36.4392 184.612 35.4473C184.016 32.67 183.485 29.562 184.612 27.0491C185.805 24.404 188.323 23.0815 190.51 21.4944C196.276 17.13 199.655 9.72368 204.56 4.16895C206.813 1.58998 209.397 -0.658361 212.247 -2.37768C214.169 -3.56798 216.289 -4.49376 218.41 -4.29538C219.47 -4.16313 220.398 -3.76636 221.26 -3.10508C224.573 -4.55989 228.218 -5.55181 231.068 -7.86627C232.923 -9.38721 234.448 -11.4372 236.369 -12.8258C238.291 -14.2145 241.008 -14.6774 242.731 -12.892C242.599 -12.5613 242.4 -12.2307 242.201 -11.8339C242.268 -11.9001 242.4 -11.9001 242.466 -11.9662C243.725 -12.4952 244.918 -13.1565 246.178 -13.5533C248.696 -14.479 251.214 -15.3387 253.799 -16.0661L253.931 -15.6032Z" fill="#189CAB"/>
</g>
</g>
<defs>
<clipPath id="clip0_1_798">
<rect width="212" height="229" fill="white"/>
</clipPath>
<clipPath id="clip1_1_798">
<rect width="212" height="229" fill="white" transform="translate(75 -16)"/>
</clipPath>
</defs>
</svg>
