<svg width="301" height="93" viewBox="0 0 301 93" fill="none" xmlns="http://www.w3.org/2000/svg">
<g clip-path="url(#clip0_1_729)">
<path d="M62.7263 83.4365C62.0537 79.0788 60.4915 74.9063 58.1367 71.1785C55.782 67.4507 52.6852 64.2474 49.0391 61.7681C49.1114 58.3092 49.9161 54.905 51.4001 51.7798C52.8841 48.6546 55.0136 45.8794 57.6484 43.6372C71.0475 32.4942 89.7458 35.831 102.629 45.9643L103.406 46.5777C100.934 48.96 99.1046 51.929 98.0886 55.2085C95.677 63.5476 104.168 75.2048 113.035 69.0157C121.605 63.0328 116.794 53.4697 111.046 46.9872C112.792 45.7652 114.635 44.6894 116.558 43.7707C126.844 38.945 140.574 38.2249 151.542 42.8644C149.141 46.5906 147.917 50.8227 148.985 55.359C150.638 62.4745 160.968 67.5919 166.903 62.1607C174.76 55.003 165.528 45.6886 158.756 41.3607C161.705 38.5575 165.094 36.257 168.788 34.551C175.189 31.644 182.177 30.2599 189.203 30.5072C196.229 30.7545 203.102 32.6265 209.283 35.9764C211.097 36.9697 212.845 38.0789 214.517 39.2972C211.915 42.8558 209.897 47.1814 210.834 51.6324C211.285 53.671 212.345 55.5243 213.874 56.9465C215.403 58.3688 217.328 59.2929 219.393 59.5963C221.33 59.7578 223.254 59.1696 224.769 57.9532C226.284 56.7367 227.274 54.985 227.535 53.0595C228.218 48.5991 225.668 44.046 222.834 40.8354C222.194 40.1052 221.518 39.4095 220.823 38.726C222.242 37.2612 223.764 35.9009 225.379 34.6555C236.591 25.9751 251.621 22.8765 265.487 25.2719C266.925 25.5154 268.343 25.8419 269.745 26.2104C269.764 29.0373 270.059 31.8556 270.625 34.6253C272.484 43.6599 278.437 57.6196 289.295 58.3351C299.443 59.0032 300.618 47.8594 297.307 40.8585C293.128 31.9561 283.267 26.1995 274.273 23.1904C273.844 23.0496 273.426 22.9175 272.998 22.7867C273.335 16.0933 275.291 9.58162 278.698 3.8101C279.444 2.53414 277.254 1.21111 276.466 2.47189C272.799 8.36168 270.553 15.0243 269.906 21.9323C251.616 17.4399 230.657 22.1022 217.462 35.8291C203.272 24.5205 181.958 22.5691 165.797 30.6943C161.573 32.8041 157.74 35.6185 154.462 39.0165C144.597 34.6024 133.54 33.6111 123.047 36.2001C117.396 37.5619 112.042 39.9497 107.253 43.245L106.882 42.9161C97.9451 35.4296 86.2057 30.6494 74.4007 31.5558C58.9457 32.761 45.6629 44.8065 43.8821 58.9316C41.5803 57.9638 39.1598 57.3074 36.6845 56.9797C23.6408 55.2327 10.8952 62.6034 5.04812 74.1764C3.53699 77.1635 8.31244 79.2394 9.81363 76.2534C14.59 66.7901 25.2478 60.6721 35.8986 62.1067C38.6578 62.4773 41.3308 63.328 43.7966 64.6205C44.2416 68.9193 45.7012 73.051 48.0552 76.6754C50.704 80.8529 54.5586 84.128 59.1091 86.0674C59.5233 86.2523 59.9788 86.3248 60.4299 86.2775C60.8811 86.2302 61.3118 86.0648 61.6786 85.798C62.0454 85.5312 62.3354 85.1725 62.5194 84.7579C62.7033 84.3432 62.7746 83.8875 62.7263 83.4365ZM287.096 34.6901C290.31 37.0695 292.801 40.2928 294.294 44.0023C296.04 48.7407 295.317 54.7464 288.925 54.1598C279.286 53.2807 274.418 38.448 273.338 30.5502C273.203 29.4081 273.069 28.266 273.015 27.1244C278.116 28.7997 282.883 31.3607 287.096 34.6901ZM222.946 52.311C221.735 57.6793 215.782 53.6376 215.134 50.4415C214.625 47.9137 215.96 45.1386 217.295 43.1387C217.516 42.7905 217.748 42.4511 217.989 42.1105C221.27 45.0874 223.793 48.7274 222.985 52.2963L222.946 52.311ZM161.057 49.0241C163.739 51.6184 167.456 58.9844 161.034 59.4283C160.057 59.4883 159.078 59.3475 158.158 59.0146C157.238 58.6818 156.396 58.1638 155.684 57.4928C154.972 56.8217 154.405 56.0119 154.018 55.1132C153.631 54.2145 153.432 53.2461 153.434 52.2676C153.448 49.6578 154.239 47.1112 155.705 44.952C157.651 46.0945 159.459 47.4558 161.096 49.0095L161.057 49.0241ZM110.598 54.1285C111.34 55.1728 111.865 56.3552 112.142 57.6059C112.419 58.8566 112.442 60.1501 112.21 61.4099C111.23 65.6537 106.673 66.5426 104.002 63.2724C100.269 58.6773 103.05 53.8189 107.208 49.9664C108.503 51.2163 109.652 52.6075 110.637 54.1139L110.598 54.1285ZM50.0561 69.2102C52.6173 71.7665 54.6369 74.8129 55.9941 78.1674C53.2288 75.786 51.1853 72.6782 50.0947 69.1956L50.0561 69.2102Z" fill="#FBBD08"/>
</g>
<defs>
<clipPath id="clip0_1_729">
<rect width="58.38" height="295.47" fill="white" transform="translate(293.444) rotate(83.2859)"/>
</clipPath>
</defs>
</svg>
